<svg width="64" height="70" viewBox="0 0 64 70" fill="none" xmlns="http://www.w3.org/2000/svg">
<path opacity="0.7" d="M62.6399 13.5601L62.2399 14.1201C62.4799 12.5201 62.1599 10.2801 61.7599 9.00005C61.1999 11.0801 60.1599 12.9201 58.7199 14.6801L58.6399 13.6401C56.9599 16.2801 54.8799 18.4401 52.5599 19.4801C52.5599 19.0801 52.4799 18.6001 52.3199 18.2801C49.2799 22.2801 41.9199 21.3201 42.7199 29.4001C44.3999 29.1601 45.1999 30.8401 43.7599 32.4401C43.1199 32.4401 42.4799 32.2001 41.9199 31.8801L42.2399 31.4001L40.9599 30.7601C41.2799 30.6801 41.5999 30.5201 41.9199 30.3601C39.9999 29.4001 40.6399 27.5601 38.3999 26.6001C37.9999 26.2001 37.6799 25.6401 37.4399 25.0801C37.3599 24.6801 37.2799 24.2001 37.1999 23.7201C37.1999 22.7601 37.1999 22.2001 37.4399 21.8001L37.5999 22.0401C38.1599 20.7601 38.8799 19.8001 39.8399 19.2401C42.4799 19.3201 43.9999 19.1601 44.4799 17.5601C44.3199 17.6401 44.2399 17.6401 44.1599 17.6401C44.0799 17.4801 43.9999 17.4001 43.9199 17.3201C44.5599 17.0801 45.5199 17.4801 45.7599 17.4801C45.6799 16.6801 45.3599 16.4401 45.1999 16.1201L46.0799 15.4801C48.3199 16.2001 50.2399 14.5201 51.5999 15.2401L52.0799 13.5601C50.0799 12.6001 48.8799 13.8801 47.1999 13.8801C47.6799 12.8401 47.7599 11.8801 47.3599 10.9201L45.5999 10.3601C43.4399 11.0001 43.5199 13.0001 44.3199 14.3601C43.8399 14.8401 43.3599 15.0801 43.0399 15.2401L42.4799 15.3201C42.4799 15.3201 42.3999 14.6001 41.4399 14.3601V13.8801C42.6399 12.9201 42.7199 11.9601 42.4799 11.4001C42.2399 10.8401 41.5999 10.5201 41.0399 10.6801L40.2399 10.9201L40.1599 10.7601C40.2399 10.6801 40.2399 10.6001 40.2399 10.5201C40.2399 10.3601 40.1599 10.2001 40.0799 10.1201H40.1599L40.0799 9.80005L40.3999 9.88005V8.76005L40.0799 8.84005L40.1599 8.52005H39.0399L39.1199 8.84005L38.7999 8.76005V9.88005L39.1199 9.80005L38.7999 10.2001H38.9599C38.8799 10.2801 38.7999 10.4401 38.7999 10.6001C38.7999 10.6801 38.7999 10.8401 38.8799 10.9201L38.7999 11.0801L37.9999 10.8401C37.4399 10.6801 36.7999 10.9201 36.5599 11.5601C36.3199 12.1201 36.3999 13.0001 37.5999 14.0401V14.6801C37.2799 14.6801 36.9599 14.6801 36.7199 14.6801C35.7599 14.1201 34.9599 13.1601 34.7199 11.9601C35.3599 11.8801 35.8399 11.6401 36.2399 11.2401V9.56005C38.7999 7.64005 39.5199 5.08005 37.2799 3.96005C35.9999 3.32005 34.3999 3.88005 33.5999 4.52005C33.4399 4.28005 33.1999 4.04005 32.9599 3.96005C32.9599 3.72005 32.8799 3.48005 32.6399 3.24005H32.7999L32.6399 2.68005L33.1999 2.84005V1.08005L32.6399 1.24005L32.7999 0.680054H31.0399L31.1999 1.24005L30.6399 1.08005V2.84005L31.1999 2.68005L31.0399 3.24005H31.1999C31.0399 3.40005 30.8799 3.64005 30.8799 3.96005V4.04005C30.7199 4.12005 30.4799 4.36005 30.3199 4.52005C29.5199 3.88005 27.9199 3.32005 26.7199 3.96005C24.4799 5.08005 25.1999 7.64005 27.7599 9.56005V11.2401C28.1599 11.6401 28.7199 11.8801 29.2799 11.9601C29.0399 13.0801 28.2399 14.0401 27.2799 14.6801C27.0399 14.6801 26.7199 14.6801 26.3999 14.6801V13.9601C27.5999 13.0001 27.6799 12.0401 27.4399 11.4801C27.1999 10.9201 26.5599 10.6001 25.9999 10.7601L25.1999 11.0001L25.1199 10.8401C25.1999 10.7601 25.1999 10.6801 25.1999 10.6001C25.1999 10.4401 25.1199 10.2801 25.0399 10.2001H25.1199L25.0399 9.88005L25.3599 9.96005V8.84005L25.0399 8.92005L25.1199 8.60005H23.9999L24.0799 8.92005L23.7599 8.84005V9.96005L24.0799 9.88005V10.2001H24.2399C24.1599 10.2801 24.0799 10.4401 24.0799 10.6001C24.0799 10.6801 24.0799 10.8401 24.1599 10.9201L24.0799 11.0801L23.2799 10.8401C22.7199 10.6801 22.0799 10.9201 21.8399 11.5601C21.5999 12.1201 21.6799 13.0001 22.8799 14.0401V14.5201C21.9199 14.7601 21.8399 15.5601 21.8399 15.5601H21.4399C21.1199 15.4001 20.3999 14.9201 19.9199 14.4401C20.7199 13.0001 20.7199 11.2401 18.6399 10.6001L16.7999 11.0001C16.3999 11.9601 16.4799 12.8401 16.9599 13.8801C15.2799 13.8801 14.0799 12.6001 12.0799 13.5601L12.5599 15.2401C13.9199 14.5201 15.8399 16.2001 18.0799 15.4801L18.9599 16.1201C18.6399 16.5201 18.3199 16.9201 18.2399 17.6401C18.7999 17.3201 19.3599 17.2401 20.2399 17.4001C19.9199 17.4001 19.8399 17.5601 19.8399 17.6401C19.9199 17.7201 19.9999 17.7201 19.9999 17.7201C19.9199 17.7201 19.6799 17.6401 19.4399 17.6401C19.9199 19.1601 21.5199 19.3201 24.1599 19.2401C25.1199 19.7201 25.7599 20.6801 26.3999 22.0401L26.5599 21.8001C26.7199 22.2801 26.7999 22.7601 26.7999 23.7201C26.7999 24.2801 26.7199 24.6801 26.5599 25.0801C26.2399 25.6401 25.9199 26.2001 25.5999 26.6001C23.3599 27.5601 23.9999 29.4001 22.0799 30.2801C22.3999 30.5201 22.6399 30.6801 23.0399 30.6801L21.7599 31.3201L22.0799 31.8001C21.5199 32.1201 20.9599 32.3601 20.2399 32.3601C18.7199 30.7601 19.5199 29.1601 21.2799 29.3201C22.0799 21.2401 14.7199 22.2801 11.6799 18.2001C11.5999 18.5201 11.5199 19.0001 11.4399 19.4001C9.11992 18.3601 7.03992 16.2001 5.35992 13.5601L5.27992 14.6001C3.91992 12.8401 2.87992 10.9201 2.23992 8.92005C1.83992 10.2001 1.51992 12.4401 1.75992 14.0401L1.35992 13.4801C0.559921 16.5201 0.639921 18.5201 2.31992 21.1601C2.55992 22.8401 3.27992 24.5201 4.07992 25.8001C3.59992 25.7201 3.27992 25.6401 2.79992 25.6401C3.67992 27.3201 4.71992 28.9201 5.67992 29.9601L4.31992 30.3601C5.51992 32.2001 6.87992 33.4001 8.47992 34.4401C7.75992 34.6001 7.43992 34.8401 6.87992 35.2401C7.91992 36.3601 8.79992 36.9201 10.2399 37.3201C9.11992 37.7201 8.63992 38.2001 8.31992 39.0801C9.75992 39.5601 11.3599 39.8801 12.9599 39.8001C11.9999 40.3601 11.1199 41.0001 10.6399 41.8801L10.3199 41.7201C10.1599 41.6401 10.0799 41.6401 9.91992 41.6401C9.59992 41.6401 9.19992 41.8801 9.11992 42.2001C9.11992 42.2801 9.03992 42.3601 9.03992 42.3601V42.5201C8.95992 42.6001 8.79992 42.6801 8.71992 42.7601L8.31992 42.6001C8.15992 42.5201 7.99992 42.5201 7.83992 42.5201C7.43992 42.5201 7.03992 42.7601 6.87992 43.1601C6.63992 43.7201 6.87992 44.2801 7.35992 44.6001L7.67992 44.7601H7.75992C7.75992 44.9201 7.75992 45.0001 7.75992 45.1601L7.67992 45.3201C7.67992 45.4001 7.59992 45.4001 7.59992 45.4801C7.51992 45.7201 7.51992 45.9601 7.59992 46.2001C7.67992 46.4401 7.83992 46.6001 8.07992 46.7601L8.71992 47.0801L8.55992 47.0001L8.87992 47.1601L9.99992 47.7201L10.0799 47.8001C9.27992 48.7601 8.31992 49.3201 7.19992 49.3201C7.03992 49.3201 6.87992 49.3201 6.63992 49.3201L6.39992 49.1601H6.31992C5.83992 49.0801 5.35992 48.9201 4.87992 48.6801L4.31992 48.3601L4.47992 49.0001C4.79992 50.5201 6.15992 52.0401 8.23992 53.4001C10.2399 54.6001 12.3999 55.3201 14.2399 55.3201C15.1999 55.3201 15.9999 55.0801 16.5599 54.6801L17.1199 54.2801L16.4799 54.1201C15.9999 53.9601 15.5199 53.7201 15.1999 53.4801L14.8799 53.4001L14.6399 53.1601C13.5199 52.1201 13.5199 50.6001 13.8399 49.4801H13.9199L15.0399 50.0401L15.3599 50.2001L15.4399 50.0401L17.7599 51.1601C17.6799 54.7601 16.5599 57.0001 14.4799 59.3201H14.3999C14.0799 59.4001 13.8399 59.7201 13.7599 60.0401C13.6799 60.1201 13.5999 60.2001 13.5199 60.2801C13.5199 60.2801 13.5199 60.2801 13.4399 60.2801C13.2799 60.0401 13.0399 59.8801 12.7199 59.8801C12.6399 59.8801 12.5599 59.8801 12.4799 59.9601L12.0799 60.1201C11.8399 60.2001 11.6799 60.3601 11.5999 60.5201C11.5199 60.6801 11.5199 60.8401 11.5199 61.0801C11.4399 61.0801 11.2799 61.1601 11.1999 61.1601C11.0399 60.8401 10.7199 60.6001 10.3999 60.6001C10.3199 60.6001 10.2399 60.6001 10.0799 60.6801L9.83992 60.7601C9.35992 60.9201 9.11992 61.3201 9.27992 61.8001C8.23992 62.1201 7.19992 62.5201 6.23992 62.7601C6.39992 65.2401 7.19992 67.3201 8.79992 69.2401C11.2799 68.0401 13.6799 66.8401 15.9999 65.7201C16.0799 65.8001 16.2399 65.8801 16.3999 65.8801C16.4799 65.8801 16.5599 65.8801 16.6399 65.8001L16.9599 65.7201C17.3599 65.5601 17.8399 65.1601 18.0799 64.7601C21.4399 63.1601 24.5599 61.7201 27.2799 60.5201C27.3599 61.4801 27.4399 62.3601 27.7599 63.0001C28.3999 62.7601 28.9599 62.6001 29.5199 62.1201C29.5199 62.4401 29.6799 62.7601 29.7599 63.1601L28.5599 64.4401L29.3599 65.2401L30.5599 64.1201C30.7199 65.0001 31.6799 66.2801 32.2399 66.6001C32.6399 66.2801 33.6799 64.9201 33.9199 64.1201L35.1199 65.2401L35.9199 64.4401L34.7199 63.1601C34.8799 62.8401 34.9599 62.5201 34.9599 62.1201C35.5199 62.5201 36.0799 62.7601 36.7199 63.0001C36.9599 62.3601 37.1199 61.5601 37.1999 60.5201L37.5199 60.6801L37.6799 60.5201L43.4399 63.3201L43.9199 63.5601L44.0799 63.8001L44.1599 63.8801H44.2399L45.0399 64.2801L45.2799 64.3601C45.5199 64.7601 46.1599 65.8001 47.2799 65.7201C47.5199 65.7201 47.6799 65.6401 47.8399 65.5601L48.6399 65.9601L48.9599 66.1201L49.0399 65.9601L51.9999 67.3201L51.9199 67.4801L52.2399 67.6401L53.3599 68.2001L53.6799 68.3601L53.7599 68.2001L54.6399 68.6001C54.3999 68.6001 54.5599 68.6001 54.6399 68.6001C54.9599 68.6001 55.3599 68.3601 55.4399 68.0401C55.4399 67.9601 55.5199 67.8801 55.5199 67.8801V67.7201C55.5999 67.6401 55.7599 67.6401 55.8399 67.4801H55.9199L56.3999 67.7201C56.5599 67.8001 56.7199 67.8001 56.8799 67.8001C57.2799 67.8001 57.6799 67.5601 57.8399 67.1601C58.0799 66.6001 57.8399 66.0401 57.3599 65.7201L56.9599 65.4801C56.9599 65.3201 56.9599 65.2401 56.9599 65.0801L57.0399 65.0001C57.1199 64.9201 57.1199 64.9201 57.1199 64.8401C57.1999 64.6001 57.1999 64.3601 57.1199 64.1201C57.0399 63.8801 56.7999 63.8801 56.6399 63.8001L55.6799 63.3201L55.7599 63.1601L55.4399 63.0001L54.3199 62.4401L53.9999 62.2801L54.0799 62.1201C54.2399 61.7201 53.9199 61.2401 53.6799 61.1601L53.2799 61.0001C52.8799 60.8401 52.3999 61.0001 52.2399 61.4001L52.1599 61.5601L51.8399 61.4001L51.9199 61.1601C52.0799 60.7601 51.9199 60.2801 51.4399 60.0401L51.0399 59.8801C50.7999 59.8001 50.4799 59.8801 50.3199 59.9601C47.9199 57.4001 46.6399 55.2401 46.4799 52.4401C50.2399 51.0001 54.4799 49.4801 58.9599 48.0401C58.4799 45.7201 57.5999 43.5601 56.3999 41.5601L55.2799 42.2001L54.3199 40.3601C53.8399 40.6801 53.3599 40.9201 52.7999 41.2401C52.3199 40.7601 51.6799 40.2801 51.0399 39.9601C52.6399 40.0401 54.3199 39.7201 55.6799 39.2401C55.2799 38.4401 54.7999 37.8801 53.7599 37.4801C55.1999 37.0801 56.1599 36.5201 57.1199 35.4001C56.5599 35.0001 56.2399 34.7601 55.5199 34.6001C57.1199 33.5601 58.3999 32.3601 59.6799 30.5201L58.3199 30.1201C59.2799 29.0801 60.3199 27.4801 61.1999 25.8001C60.7199 25.8001 60.3999 25.8001 59.9199 25.9601C60.7999 24.7601 61.4399 23.0001 61.6799 21.3201C63.3599 18.5201 63.4399 16.6001 62.6399 13.5601ZM39.3599 48.6001C39.2799 48.6801 39.1199 48.6801 39.0399 48.7601L39.1199 48.2001L39.3599 48.6001ZM31.4399 12.2801H31.9999H32.5599C33.0399 14.1201 34.1599 15.4001 35.7599 16.4401C35.7599 16.4401 34.7199 17.9601 32.8799 18.6001C33.0399 18.8401 33.1199 18.8401 33.3599 19.0001C32.7199 19.5601 31.9999 20.9201 31.9999 20.9201V21.0001V20.9201C31.9999 20.9201 31.2799 19.5601 30.6399 19.0001C30.7999 18.8401 30.9599 18.8401 31.1199 18.6001C29.2799 17.9601 28.2399 16.4401 28.2399 16.4401C29.8399 15.4001 31.0399 14.1201 31.4399 12.2801ZM24.9599 48.6801L24.6399 48.6001L24.8799 48.2001L24.9599 48.6801ZM12.7199 42.7601C13.3599 42.6801 13.9999 42.6001 14.5599 42.4401C14.2399 42.6801 13.9199 43.0801 13.7599 43.4001L12.6399 42.9201L12.7199 42.7601ZM18.8799 58.2801C19.9999 57.0001 21.0399 55.6401 21.6799 53.0801L24.6399 54.4401L25.1199 54.6801L25.2799 54.9201L25.3599 55.0001H25.4399L25.8399 55.2401L23.0399 56.6001C21.6799 57.0801 20.1599 57.7201 18.8799 58.2801ZM45.1999 58.3601L41.7599 56.7601L41.2799 56.5201L41.1199 56.2801L41.0399 56.2001H40.9599L39.2799 55.4001C40.2399 55.0001 41.3599 54.6001 42.4799 54.1201C43.1199 55.7201 43.9999 57.1601 45.1999 58.3601ZM49.8399 42.8401C49.6799 42.6801 49.5199 42.5201 49.3599 42.3601C49.5999 42.4401 49.9199 42.5201 50.2399 42.6001C50.0799 42.6801 49.9999 42.7601 49.8399 42.8401Z" fill="#231F20"/>
<path d="M21.9198 15.8001C21.1998 15.7201 20.3998 15.7201 19.9198 15.8801C19.2798 16.0401 18.7998 16.3601 18.5598 17.1601C20.5598 16.6001 20.7198 17.7201 22.5598 18.1201C21.9998 18.3601 20.5598 18.3601 19.7598 17.8801C20.3198 18.7601 21.0398 19.0001 23.6798 18.9201C22.7998 18.2001 23.2798 16.6001 21.9198 15.8001Z" fill="#FCD015"/>
<path d="M20.1599 17.64C20.6399 17.72 20.5599 18.04 21.3599 18.04C21.1999 17.88 20.4799 17.32 20.1599 17.64Z" fill="#FCD015"/>
<path d="M41.9199 15.8001C42.6399 15.7201 43.4399 15.7201 43.9199 15.8801C44.5599 16.0401 45.0399 16.3601 45.2799 17.1601C43.2799 16.6001 43.1199 17.7201 41.2799 18.1201C41.8399 18.3601 43.2799 18.3601 44.0799 17.8801C43.5199 18.7601 42.7999 19.0001 40.1599 18.9201C41.0399 18.2001 40.6399 16.6001 41.9199 15.8001Z" fill="#FCD015"/>
<path d="M43.7598 17.64C43.2798 17.72 43.3598 18.04 42.5598 18.04C42.7198 17.88 43.4398 17.32 43.7598 17.64Z" fill="#FCD015"/>
<path d="M31.9198 53L34.1598 57.56L32.2398 58.36L30.0798 53.72L31.9198 53Z" fill="#221F1F"/>
<path d="M29.8399 63.4801L28.8799 64.4401L29.1999 64.7601L30.0799 63.8801C30.0799 63.7201 29.9199 63.5601 29.8399 63.4801Z" fill="#221F1F"/>
<path d="M34.2399 63.4801C34.1599 63.6401 34.0799 63.7201 33.9199 63.8001L34.7999 64.6801L35.1199 64.3601L34.2399 63.4801Z" fill="#221F1F"/>
<path d="M22.96 13.9601V14.4401C24.16 14.3601 25.12 14.5201 26.24 14.6001V13.9601C25.2 13.8001 24.08 13.8001 22.96 13.9601Z" fill="#FFC112"/>
<path d="M23.12 11.3201L22.8 11.0801C22.56 11.0801 22.32 11.2401 22.16 11.4801C21.44 12.3601 22.4 13.3201 22.88 13.7201H23.04C23.28 13.7201 23.6 13.6401 23.84 13.6401C23.84 12.6801 23.68 11.8001 23.12 11.3201Z" fill="#FFC112"/>
<path d="M26.4001 11.0801L26.0801 11.3201C25.5201 11.8001 25.4401 12.6801 25.3601 13.6401C25.6001 13.6401 25.9201 13.7201 26.1601 13.7201H26.3201C26.8001 13.3201 27.7601 12.3601 27.0401 11.4801C26.8801 11.1601 26.6401 11.0801 26.4001 11.0801Z" fill="#FFC112"/>
<path d="M24.6401 10.9201C24.8168 10.9201 24.9601 10.7768 24.9601 10.6001C24.9601 10.4234 24.8168 10.2801 24.6401 10.2801C24.4633 10.2801 24.3201 10.4234 24.3201 10.6001C24.3201 10.7768 24.4633 10.9201 24.6401 10.9201Z" fill="#FFC112"/>
<path d="M24.0799 13.5601C24.2399 13.5601 24.3999 13.5601 24.6399 13.5601C24.7999 13.5601 24.9599 13.5601 25.1999 13.5601C25.1999 12.5201 25.3599 11.5601 25.9999 11.0801L25.1999 11.3201L25.0399 11.0801C24.9599 11.1601 24.7999 11.1601 24.7199 11.1601C24.5599 11.1601 24.4799 11.0801 24.3999 11.0801L24.2399 11.3201L23.4399 11.0801C23.9199 11.6401 24.0799 12.6001 24.0799 13.5601Z" fill="#FFC112"/>
<path d="M24.3201 9.96005H24.8801L24.8001 9.64005L25.2001 9.72005V9.16005L24.8001 9.24005L24.8801 8.92005H24.3201L24.4801 9.24005L24.0801 9.16005V9.72005L24.4801 9.64005L24.3201 9.96005Z" fill="#FFC112"/>
<path d="M40.4 13.88H40.32C39.68 13.8 39.04 13.8 38.32 13.88H38.24C38.08 13.88 37.92 13.88 37.76 13.96V14.6C38.8 14.6 39.76 14.36 40.96 14.44V13.96C40.72 13.88 40.56 13.88 40.4 13.88Z" fill="#FFC112"/>
<path d="M41.7601 11.4C41.6001 11.16 41.3601 11.08 41.1201 11L40.8001 11.32C40.2401 11.8 40.1601 12.68 40.0801 13.64C40.3201 13.64 40.6401 13.72 40.8801 13.72H41.0401C41.5201 13.32 42.4801 12.36 41.7601 11.4Z" fill="#FFC112"/>
<path d="M37.8399 11.3201L37.5199 11.0801C37.2799 11.0801 37.0399 11.1601 36.7999 11.4801C36.0799 12.3601 37.0399 13.3201 37.5199 13.7201H37.6799C37.9199 13.7201 38.2399 13.6401 38.4799 13.6401C38.4799 12.6801 38.3999 11.8001 37.8399 11.3201Z" fill="#FFC112"/>
<path d="M39.28 10.9201C39.4567 10.9201 39.6 10.7768 39.6 10.6001C39.6 10.4234 39.4567 10.2801 39.28 10.2801C39.1032 10.2801 38.96 10.4234 38.96 10.6001C38.96 10.7768 39.1032 10.9201 39.28 10.9201Z" fill="#FFC112"/>
<path d="M38.8 11.4001L38 11.1601C38.64 11.6401 38.8 12.6001 38.8 13.6401C38.96 13.6401 39.12 13.6401 39.36 13.6401C39.52 13.6401 39.68 13.6401 39.92 13.6401C39.92 12.6001 40.08 11.6401 40.72 11.1601L39.92 11.4001L39.76 11.1601C39.68 11.2401 39.52 11.2401 39.44 11.2401C39.28 11.2401 39.2 11.1601 39.12 11.1601L38.8 11.4001Z" fill="#FFC112"/>
<path d="M39.04 9.96005H39.6L39.44 9.64005L39.84 9.72005V9.16005L39.44 9.24005L39.6 8.92005H39.04L39.12 9.24005L38.72 9.16005V9.72005L39.12 9.64005L39.04 9.96005Z" fill="#FFC112"/>
<path d="M27.3601 5.88007V6.36006L27.7601 6.52006V6.12006L27.3601 5.88007Z" fill="#FFC112"/>
<path d="M31.92 8.52003C29.76 8.52003 28 9.08003 28 9.72003V10.76C28.64 10.12 30.32 9.88004 31.92 9.88004C33.52 9.88004 35.12 10.2 35.84 10.76V9.72003C35.84 9.08003 34.08 8.52003 31.92 8.52003Z" fill="#FFC112"/>
<path d="M33.9201 6.3601C34.2401 5.0001 35.3601 4.2801 36.4801 4.0401C35.2801 3.8001 33.9201 4.3601 33.4401 5.1601C33.2001 5.5601 33.0401 6.0401 32.8801 6.4401C33.2001 6.2801 33.6001 6.2801 33.9201 6.3601Z" fill="#FFC112"/>
<path d="M29.9201 6.36003C30.3201 6.28003 30.6401 6.28003 30.9601 6.44003C30.8001 5.96003 30.6401 5.48003 30.4001 5.08003C29.9201 4.36003 28.5601 3.72003 27.3601 3.96003C28.4801 4.28003 29.6001 5.00003 29.9201 6.36003Z" fill="#FFC112"/>
<path d="M28.1599 11.0801C28.3999 11.3201 28.7999 11.5601 29.3599 11.7201C29.4399 11.3201 29.4399 10.9201 29.5199 10.4401C28.8799 10.6001 28.3999 10.8401 28.1599 11.0801Z" fill="#FFC112"/>
<path d="M32.1599 10.1201C32.0799 10.1201 31.9999 10.1201 31.9199 10.1201C31.8399 10.1201 31.7599 10.1201 31.6799 10.1201C31.6799 10.7601 31.5999 11.4001 31.4399 11.9601C31.5999 11.9601 31.7599 11.9601 31.9199 11.9601C32.0799 11.9601 32.2399 11.9601 32.3999 11.9601C32.3199 11.4001 32.2399 10.8401 32.1599 10.1201Z" fill="#FFC112"/>
<path d="M34.3999 10.4401C34.3999 10.9201 34.4799 11.3201 34.5599 11.7201C35.1199 11.5601 35.5199 11.3201 35.7599 11.0801C35.5199 10.8401 35.0399 10.6001 34.3999 10.4401Z" fill="#FFC112"/>
<path d="M31.92 4.68009C32.3176 4.68009 32.64 4.35773 32.64 3.96009C32.64 3.56244 32.3176 3.24009 31.92 3.24009C31.5223 3.24009 31.2 3.56244 31.2 3.96009C31.2 4.35773 31.5223 4.68009 31.92 4.68009Z" fill="#FFC112"/>
<path d="M31.44 2.92007H32.32L32.08 2.20007L32.8 2.44007V1.56007L32.08 1.80007L32.32 1.08007H31.44L31.76 1.80007L30.96 1.56007V2.44007L31.76 2.20007L31.44 2.92007Z" fill="#FFC112"/>
<path d="M36.1599 6.52006L36.5599 6.36006V5.88007L36.2399 6.12006L36.1599 6.52006Z" fill="#FFC112"/>
<path d="M37.84 4.92008C37.68 4.60008 37.44 4.44008 37.12 4.28008C35.92 4.36008 34.56 5.00008 34.24 6.60008V6.76008L34.08 6.68008C33.6 6.52008 33.2 6.60008 32.8 6.84008C32.72 7.16008 32.64 7.40008 32.64 7.56008C32.56 7.88008 32.24 8.04008 32 8.04008C31.76 8.04008 31.44 7.80008 31.36 7.56008C31.36 7.48008 31.28 7.24008 31.2 6.92008C30.88 6.68008 30.4 6.68008 29.92 6.76008L29.76 6.84008V6.68008C29.44 5.08008 28.16 4.44008 26.88 4.36008C26.64 4.52008 26.4 4.76008 26.16 5.00008C25.04 6.68008 27.2 8.68008 28 9.32008C28.56 8.60008 30.32 8.28008 32 8.28008C33.76 8.28008 35.52 8.68008 36 9.32008C36.72 8.60008 38.88 6.60008 37.84 4.92008ZM27.2 6.60008L27.04 6.52008V6.28008V5.88008V5.40008L27.52 5.64008L27.92 5.80008L28.08 5.88008V6.12008V6.52008V7.00008L27.6 6.76008L27.2 6.60008ZM27.92 8.52008C27.76 8.52008 27.68 8.44008 27.68 8.28008C27.68 8.12008 27.76 8.04008 27.92 8.04008C28.08 8.04008 28.16 8.12008 28.16 8.28008C28.16 8.36008 28.08 8.52008 27.92 8.52008ZM29.12 8.04008C28.96 8.04008 28.88 7.96008 28.88 7.80008C28.88 7.64008 28.96 7.56008 29.12 7.56008C29.28 7.56008 29.36 7.64008 29.36 7.80008C29.36 7.88008 29.2 8.04008 29.12 8.04008ZM30.32 7.72008C30.16 7.72008 30.08 7.64008 30.08 7.48008C30.08 7.32008 30.16 7.24008 30.32 7.24008C30.48 7.24008 30.56 7.32008 30.56 7.48008C30.56 7.64008 30.48 7.72008 30.32 7.72008ZM33.6 7.72008C33.44 7.72008 33.36 7.64008 33.36 7.48008C33.36 7.32008 33.44 7.24008 33.6 7.24008C33.76 7.24008 33.84 7.32008 33.84 7.48008C33.84 7.64008 33.68 7.72008 33.6 7.72008ZM34.8 8.04008C34.64 8.04008 34.56 7.96008 34.56 7.80008C34.56 7.64008 34.64 7.56008 34.8 7.56008C34.96 7.56008 35.04 7.64008 35.04 7.80008C35.04 7.88008 34.96 8.04008 34.8 8.04008ZM36 8.52008C35.84 8.52008 35.76 8.44008 35.76 8.28008C35.76 8.12008 35.84 8.04008 36 8.04008C36.16 8.04008 36.24 8.12008 36.24 8.28008C36.24 8.36008 36.16 8.52008 36 8.52008ZM35.84 7.00008V6.52008V6.12008V5.88008L36 5.80008L36.4 5.64008L36.88 5.40008V5.88008V6.28008V6.52008L36.72 6.60008L36.32 6.76008L35.84 7.00008Z" fill="#FFC112"/>
<path d="M31.92 7.72005C32.1409 7.72005 32.32 7.54097 32.32 7.32005C32.32 7.09914 32.1409 6.92005 31.92 6.92005C31.6991 6.92005 31.52 7.09914 31.52 7.32005C31.52 7.54097 31.6991 7.72005 31.92 7.72005Z" fill="#FFC112"/>
<path d="M31.4401 6.76008C31.6001 6.60008 31.7601 6.60008 31.9201 6.60008C32.0801 6.60008 32.3201 6.68008 32.4001 6.76008C32.4801 6.28008 32.7201 5.56008 33.1201 4.92008C33.1201 4.92008 33.1201 4.84008 33.2001 4.84008C33.2001 4.60008 33.0401 4.44008 32.8001 4.28008C32.6401 4.60008 32.3201 4.92008 31.8401 4.92008C31.4401 4.92008 31.0401 4.68008 30.8801 4.28008C30.7201 4.36008 30.5601 4.52008 30.5601 4.76008C30.5601 4.84008 30.6401 4.84008 30.6401 4.92008C31.1201 5.64008 31.3601 6.28008 31.4401 6.76008Z" fill="#FFC112"/>
<path d="M54.0801 40.9201C46.1601 45.1601 39.2001 49.0801 32.0801 52.6001L32.2401 52.8401V52.9201C39.4401 49.8001 47.0401 46.3601 54.8801 42.4401C54.7201 41.9601 54.4001 41.3201 54.0801 40.9201Z" fill="#E0E0E0"/>
<path d="M29.8399 53.88L29.7599 53.72C28.1599 54.52 26.4799 55.24 24.8799 55.96C26.4799 55.32 28.1599 54.68 29.8399 53.88Z" fill="#E0E0E0"/>
<path d="M55.9999 42.2801C48.4799 46.0401 40.4799 49.7201 32.3999 53.2401L34.2399 57.0801C42.2399 53.7201 50.3999 50.5201 58.2399 47.8801C57.9199 45.8801 57.1199 44.0401 55.9999 42.2801Z" fill="#E0E0E0"/>
<path d="M15.76 59.8001L16.16 61.0001C16.24 61.2401 16 61.4801 16 61.8001C16.08 62.9201 15.36 63.7201 15.36 63.7201L14.96 64.0401L14.8 63.5601L13.76 60.5201C13.76 60.6001 13.68 60.6001 13.6 60.6001L14.24 62.4401C14.48 63.2401 14.08 64.3601 14 64.3601L13.84 64.6801L13.52 64.6001C13.52 64.6001 12.72 64.0401 12.32 63.0001C12.24 62.8401 12.08 62.8401 12 62.6801L11.6 61.4001C11.52 61.4001 11.44 61.4801 11.28 61.4801L12.24 64.3601L12.4 64.8401H11.92C11.84 64.8401 10.96 64.8401 10.24 63.8001C10.16 63.6401 9.75998 63.7201 9.67998 63.4801L9.27998 62.2001C8.31998 62.5201 7.43998 62.8401 6.47998 63.1601C6.79998 65.3201 7.51998 67.24 8.79998 68.76C11.04 67.64 13.36 66.5201 15.76 65.4001C15.76 65.3201 15.84 65.1601 15.92 65.0001L16.88 63.4001C16.88 63.4001 16.72 62.9201 16.8 62.3601C17.52 62.5201 18.08 62.8401 18.32 63.3201C18.4 63.5601 18.4 63.9601 18.24 64.2801C22.64 62.2001 27.2 60.2001 31.76 58.2801L30 54.2001C25.28 56.2001 20.48 58.1201 15.76 59.8001Z" fill="#E0E0E0"/>
<path d="M14.8 53.7201C14.72 53.7201 14.8 53.7201 14.8 53.7201C14 53.6401 13.28 53.5601 12.56 53.4001L12.64 53.0801C13.2 53.2401 13.76 53.3201 14.4 53.4001C13.28 52.3601 13.12 50.8401 13.52 49.3201L10.4 47.8001C9.43997 49.1601 8.15997 49.7201 6.63997 49.4801C7.99997 50.9201 9.51997 52.0401 11.36 52.6801L11.28 53.0001C9.27997 52.2801 7.59997 51.0801 6.15997 49.4001C5.67997 49.3201 5.19997 49.0801 4.71997 48.8401C5.51997 52.6001 13.44 56.3601 16.24 54.3601C15.68 54.2001 15.2 53.9601 14.8 53.7201Z" fill="#E2E2E2"/>
<path d="M8.4799 43.0001L8.0799 42.8401C7.6799 42.6801 7.2799 42.8401 7.1199 43.1601C6.9599 43.5601 7.1199 43.9601 7.4399 44.1201L7.7599 44.2801C7.9199 43.9601 8.1599 43.8001 8.4799 43.8001C8.3999 43.5601 8.3999 43.2401 8.4799 43.0001Z" fill="#A5A5A5"/>
<path d="M57.1998 66.2001L56.7998 65.9601C56.6398 66.2001 56.3998 66.4401 56.0798 66.4401C56.2398 66.6801 56.2398 67.0001 56.0798 67.2401L56.5598 67.48C56.9598 67.64 57.3598 67.48 57.5198 67.16C57.6798 66.84 57.5198 66.3601 57.1998 66.2001Z" fill="#A5A5A5"/>
<path d="M54.1181 62.7755L51.9509 67.3256L53.1065 67.876L55.2737 63.3259L54.1181 62.7755Z" fill="#939393"/>
<path d="M16.1618 44.6334L13.9946 49.1835L15.1502 49.7339L17.3174 45.1838L16.1618 44.6334Z" fill="#939393"/>
<path d="M11.1384 42.3043L8.97119 46.8544L10.1268 47.4048L12.294 42.8547L11.1384 42.3043Z" fill="#939393"/>
<path d="M20.2397 46.6001L25.4397 54.6801L26.2397 55.0801C26.4797 55.0001 26.6397 54.9201 26.8797 54.7601L22.2397 47.5601L20.2397 46.6001Z" fill="#939393"/>
<path d="M29.5999 51.0801L30.7999 52.9201C31.1199 52.7601 31.5199 52.6001 31.8399 52.4401L31.5999 52.0401L29.5999 51.0801Z" fill="#939393"/>
<path d="M34.3998 57.3201L34.5598 57.6401L34.2398 57.8001L33.9998 57.8801L34.7198 59.0801L36.6398 60.0401L34.7998 57.1601C34.7198 57.2401 34.5598 57.3201 34.3998 57.3201Z" fill="#939393"/>
<path d="M38.8799 55.4801L44.0799 63.5601L44.8799 63.9601C44.6399 63.3201 44.8799 62.8401 44.9599 62.7601L40.8799 56.4401L38.8799 55.4801Z" fill="#939393"/>
<path d="M49.8398 60.6801L49.5198 60.6001L48.0798 63.8801L47.9198 63.7201L47.2798 65.0801L48.3998 65.6401L49.0398 64.2801C48.9598 63.9601 48.7198 63.1601 49.0398 62.5201L49.8398 60.6801Z" fill="#939393"/>
<path d="M15.7599 49.1601L15.4399 49.7201L24.7199 54.1201L23.9999 53.0801L15.7599 49.1601Z" fill="#DBDBDB"/>
<path d="M22.4801 50.6801L16.4001 47.7201L15.8401 48.8401L23.6801 52.6001L22.4801 50.6801Z" fill="#DBDBDB"/>
<path d="M20.8801 48.2001L17.0401 46.3601L16.5601 47.4801L22.1601 50.1201L20.8801 48.2001Z" fill="#DBDBDB"/>
<path d="M20 46.76L19.92 46.68L17.44 45.48L17.2 46.04L20.56 47.6401L20 46.76Z" fill="#DBDBDB"/>
<path d="M7.84003 45.3201L7.76003 45.4001C7.60003 45.7201 7.76003 46.0401 8.08003 46.2001L8.72003 46.5201L8.96003 45.9601L8.16003 45.5601C8.08003 45.4801 8.00003 45.4001 7.84003 45.3201Z" fill="#DBDBDB"/>
<path d="M10.7723 46.779L10.4971 47.3568L13.7472 48.9048L14.0224 48.327L10.7723 46.779Z" fill="#DBDBDB"/>
<path d="M8.0801 44.4401C7.9201 44.7601 8.0801 45.0801 8.4001 45.2401L9.2001 45.6401L9.6801 44.5201L8.8801 44.1201C8.5601 44.0401 8.1601 44.1201 8.0801 44.4401Z" fill="#DBDBDB"/>
<path d="M11.4186 45.4187L10.9026 46.5021L14.1527 48.0501L14.6687 46.9667L11.4186 45.4187Z" fill="#DBDBDB"/>
<path d="M8.80007 43.0801C8.64007 43.4001 8.80007 43.7201 9.12007 43.8801L9.84007 44.2001L10.3201 43.0801L9.60007 42.8401C9.28007 42.6801 8.96007 42.7601 8.80007 43.0801Z" fill="#DBDBDB"/>
<path d="M12.0712 43.9536L11.5552 45.037L14.8053 46.585L15.3213 45.5016L12.0712 43.9536Z" fill="#DBDBDB"/>
<path d="M9.36003 42.4401C9.52003 42.4401 9.60003 42.4401 9.76003 42.5201L10.48 42.8401L10.72 42.2801L10.08 41.9601C9.76003 41.8001 9.44003 41.9601 9.28003 42.2801C9.36003 42.3601 9.36003 42.3601 9.36003 42.4401Z" fill="#DBDBDB"/>
<path d="M12.4764 43.0989L12.2012 43.6767L15.4513 45.2247L15.7265 44.6469L12.4764 43.0989Z" fill="#DBDBDB"/>
<path d="M36.4001 59.0001L36.9601 59.8801L37.0401 59.9601L43.3602 63.0001L42.7202 61.9601L36.4001 59.0001Z" fill="#DBDBDB"/>
<path d="M49.0645 64.9997L48.7893 65.5775L51.7505 66.9879L52.0257 66.4101L49.0645 64.9997Z" fill="#DBDBDB"/>
<path d="M29.92 52.1201L29.28 51.2401L29.2 51.0801L22.96 48.1201L23.6 49.1601L29.92 52.1201Z" fill="#DBDBDB"/>
<path d="M56.4 64.0401L55.44 63.5601L55.2 64.1201L56.32 64.6801C56.48 64.7601 56.56 64.8401 56.64 64.9201L56.72 64.8401C56.88 64.5201 56.72 64.2001 56.4 64.0401Z" fill="#DBDBDB"/>
<path d="M54.7999 67.7201L53.7599 67.2401L53.4399 67.8001L54.3199 68.2001C54.6399 68.3601 54.9599 68.2001 55.1199 67.8801C55.1199 67.8001 55.1199 67.8001 55.1999 67.7201C55.0399 67.8001 54.8799 67.8001 54.7999 67.7201Z" fill="#DBDBDB"/>
<path d="M55.4399 66.3601L54.3999 65.8801L53.9199 67.0001L54.9599 67.4801C55.2799 67.6401 55.5999 67.4801 55.7599 67.1601C55.8399 66.8401 55.7599 66.5201 55.4399 66.3601Z" fill="#DBDBDB"/>
<path d="M56.1601 65.0001L55.0401 64.4401L54.5601 65.5601L55.6801 66.1201C56.0001 66.2801 56.3201 66.1201 56.4801 65.8001C56.6401 65.4801 56.4801 65.1601 56.1601 65.0001Z" fill="#DBDBDB"/>
<path d="M26.8001 54.0401L27.6001 54.4401C28.0801 54.2001 28.5601 54.0401 29.0401 53.8001L25.6001 52.1201L26.8001 54.0401Z" fill="#DBDBDB"/>
<path d="M23.9199 49.6401L25.1199 51.5601L29.3599 53.5601C29.7599 53.4001 30.0799 53.2401 30.4799 53.0001L30.2399 52.6001L23.9199 49.6401Z" fill="#DBDBDB"/>
<path d="M33.3601 58.2001L34.0001 58.5201L33.6801 58.0401L33.3601 58.2001Z" fill="#DBDBDB"/>
<path d="M38.6401 55.6401C38.4001 55.7201 38.1601 55.8001 37.8401 55.8801L39.2001 56.5201L38.6401 55.6401Z" fill="#DBDBDB"/>
<path d="M39.5199 57.0801L37.4399 56.1201C36.9599 56.3601 36.4799 56.5201 35.9199 56.7601L40.7199 59.0801L39.5199 57.0801Z" fill="#DBDBDB"/>
<path d="M41.1201 59.5601L35.5201 56.9201C35.3601 57.0001 35.2801 57.0001 35.1201 57.0801L36.0001 58.5201L42.2401 61.4801L41.1201 59.5601Z" fill="#DBDBDB"/>
<path d="M47.3601 60.4401L47.6801 59.8801L41.6001 57.0001L42.2401 58.0401L47.3601 60.4401Z" fill="#DBDBDB"/>
<path d="M47.2801 60.8401L42.6401 58.5201L43.8401 60.4401L47.2801 62.0401C47.2801 61.8001 47.3601 61.5601 47.3601 61.4001C47.2801 61.1601 47.1201 61.0801 47.2801 60.8401Z" fill="#DBDBDB"/>
<path d="M44.1602 61.0001L45.1202 62.5201C45.6802 62.0401 46.4802 62.1201 46.4802 62.1201L46.2402 62.9201L46.4802 63.4001L47.5202 63.8801L47.7601 63.4801C47.6001 63.2401 47.4401 62.9201 47.3601 62.4401L44.1602 61.0001Z" fill="#DBDBDB"/>
<path d="M47.12 64.6801L47.36 64.2001L46.72 63.8801L47.12 64.6801Z" fill="#DBDBDB"/>
<path d="M51.92 61.8801L51.6 61.7201L51.28 62.3601L51.68 62.5201L51.92 61.8801Z" fill="#DBDBDB"/>
<path d="M51.52 62.7601L51.2 62.6001L51.04 62.9201C50.96 63.0801 50.8 62.9201 50.48 63.5601L50.96 63.8001L51.52 62.7601Z" fill="#DBDBDB"/>
<path d="M52.8001 64.6801L53.2801 63.7201C53.2001 63.8001 52.9601 63.7201 52.8801 63.8801C52.7201 64.1201 52.4001 64.4401 52.3201 64.4401L52.8001 64.6801Z" fill="#DBDBDB"/>
<path d="M51.1201 64.8401H50.6401L50.8001 64.3601L50.8801 64.2001L50.4001 63.8801C50.0001 64.3601 49.3601 64.7601 49.3601 64.7601L52.2401 66.1201L52.7201 65.0001L52.0001 64.6801C51.5201 64.7601 51.2001 64.8401 51.1201 64.8401Z" fill="#DBDBDB"/>
<path d="M32.08 59.6401C30.8 59.6401 29.76 60.6801 29.76 61.9601C29.76 63.2401 30.8 64.2801 32.08 64.2801C33.36 64.2801 34.4 63.2401 34.4 61.9601C34.4 60.6801 33.36 59.6401 32.08 59.6401ZM32.64 61.0801C32.8 61.0801 32.8 60.9201 32.72 60.8401C32.8 60.6801 32.88 60.8401 32.88 60.9201C32.88 60.9201 33.04 60.9201 33.04 61.0001C33.04 61.0801 32.96 61.0801 32.96 61.2401C32.96 61.2401 32.8 61.1601 32.88 61.2401C32.88 61.2401 32.8 61.2401 32.8 61.1601C32.8 61.0801 32.88 61.0801 32.88 61.0001C32.88 60.9201 32.72 60.9201 32.72 60.9201C32.8 61.0001 32.8 61.1601 32.64 61.0801C32.64 61.1601 32.64 61.0801 32.64 61.0801ZM32.4 61.8801H31.84C32 61.7201 31.84 61.3201 31.52 61.3201C31.44 61.3201 31.44 61.4001 31.44 61.4001V61.3201C31.44 61.1601 31.84 61.2401 32 61.1601C32 61.2401 31.92 61.3201 31.92 61.3201C32 61.4001 32.08 61.5601 32.16 61.8001C32.16 61.5601 32.24 61.4001 32.4 61.3201C32.32 61.3201 32.24 61.2401 32.32 61.1601C32.48 61.2401 32.88 61.1601 32.88 61.3201V61.4001C32.88 61.4001 32.88 61.3201 32.8 61.3201C32.4 61.3201 32.16 61.7201 32.4 61.8801ZM32.64 61.4801C32.56 61.4801 32.56 61.4801 32.48 61.4801L32.56 61.4001C32.56 61.4001 32.64 61.4001 32.64 61.4801ZM32.16 62.4401C32.16 62.4401 32.24 62.3601 32.24 62.4401C32.24 62.5201 32.16 62.5201 32.16 62.5201L32 62.0401H32.08C32.08 62.0401 32.16 61.9601 32.24 62.0401V62.1201V62.0401C32.24 62.0401 32.24 62.0401 32.24 62.1201V62.2001C32.32 62.2001 32.32 62.2001 32.32 62.2801C32.32 62.2001 32.24 62.2001 32.24 62.2001C32.16 62.3601 32.16 62.3601 32.16 62.4401ZM31.92 62.2801C31.92 62.2801 31.92 62.3601 31.92 62.2801C31.84 62.2801 31.92 62.2801 31.92 62.2801C31.84 62.2001 31.84 62.2001 31.84 62.2001C31.84 62.2001 31.92 62.2001 31.92 62.2801C31.92 62.2001 32 62.2001 32 62.2001C31.92 62.2001 31.84 62.2001 31.84 62.1201L31.92 62.0401V61.9601L32.16 62.6001C32.08 62.6001 32 62.6001 31.92 62.6001C31.92 62.6001 31.84 62.6001 31.84 62.5201C31.84 62.5201 31.84 62.5201 31.84 62.4401C31.84 62.4401 31.92 62.3601 31.92 62.2801ZM31.68 61.4801C31.68 61.4801 31.6 61.4801 31.52 61.4801C31.52 61.4001 31.52 61.4001 31.6 61.4001C31.6 61.4001 31.68 61.4001 31.68 61.4801ZM32.48 60.7601V60.9201V60.7601ZM32.08 60.5201L32.16 60.6001L32.08 60.6801L32 60.6001L32.08 60.5201ZM31.6 60.7601V60.9201V60.7601ZM31.6 60.9201H31.76C31.84 60.9201 31.84 60.9201 31.84 61.0001C31.92 61.0001 32 60.9201 32 60.8401L31.92 60.7601C31.84 60.6801 31.92 60.6001 32 60.6001L32.08 60.7601L32.16 60.6001C32.24 60.6001 32.32 60.6801 32.24 60.7601L32.16 60.8401C32.16 60.9201 32.24 61.0001 32.32 61.0001C32.32 60.9201 32.32 60.9201 32.4 60.9201L32.48 61.0001L32.56 60.9201C32.64 60.9201 32.64 60.9201 32.64 61.0001L32.56 61.0801H32.4C32.24 61.0801 32.16 61.0001 32.16 60.9201H32C32 61.0001 31.92 61.0801 31.76 61.0801H31.6C31.6 61.0801 31.6 61.0001 31.52 61.0001C31.44 61.0001 31.52 60.9201 31.6 60.9201ZM31.2 60.9201C31.28 60.8401 31.36 60.6801 31.36 60.8401C31.28 60.9201 31.28 61.0801 31.44 61.0801C31.28 61.0801 31.28 61.0001 31.28 60.9201C31.28 60.9201 31.12 60.9201 31.12 61.0001C31.12 61.0801 31.2 61.0801 31.2 61.1601C31.2 61.1601 31.2 61.2401 31.12 61.2401C31.12 61.1601 31.04 61.1601 31.04 61.2401C31.12 61.0801 30.96 61.0801 30.96 61.0001C31.04 60.9201 31.2 61.0001 31.2 60.9201ZM30.64 61.7201C30.72 61.7201 30.8 61.7201 30.72 61.6401C30.64 61.5601 30.56 61.4001 30.64 61.3201C30.64 61.3201 30.88 61.4001 30.8 61.3201C30.72 61.1601 30.72 61.0001 30.8 60.9201C30.8 61.0001 31.12 61.4001 31.44 61.6401C31.44 61.6401 31.36 61.7201 31.36 61.8001C31.36 61.8801 31.44 61.9601 31.52 61.9601C31.6 61.9601 31.6 61.9601 31.68 61.9601V62.2001C31.68 62.1201 31.52 62.0401 31.44 62.0401C31.44 62.1201 31.36 62.2001 31.36 62.2801C31.28 62.3601 31.2 62.3601 31.12 62.2801C31.12 62.2801 31.2 62.1201 31.12 62.2001C31.04 62.2801 30.96 62.2001 30.88 62.1201C30.96 62.1201 30.96 62.0401 30.88 62.0401C30.8 62.0401 30.64 62.0401 30.64 61.8801C30.64 61.8801 30.8 61.8001 30.72 61.8001C30.72 61.9601 30.64 61.8801 30.64 61.7201ZM32.88 63.0001C32.8 63.0001 32.72 63.0001 32.72 62.9201C32.64 62.8401 32.56 62.8401 32.4 62.8401C32.48 62.7601 32.32 62.6801 32.24 62.7601C32.16 62.7601 32.16 62.8401 32.16 62.9201C32.32 62.9201 32.56 63.0801 32.56 63.1601C32.56 63.2401 32.56 63.2401 32.48 63.2401C32.48 63.0801 32.4 63.0801 32.4 63.2401C32.4 63.3201 32.32 63.3201 32.32 63.4001C32.32 63.2401 32.24 63.2401 32.24 63.4001C32.24 63.4801 32.16 63.4801 32.16 63.4801L32.08 63.4001C32.08 63.2401 32 63.2401 32 63.4001C31.92 63.4001 31.92 63.3201 31.92 63.2401C31.92 63.0801 31.84 63.0801 31.84 63.2401C31.76 63.2401 31.76 63.1601 31.76 63.1601C31.84 63.0801 32 62.9201 32.16 62.9201C32.16 62.8401 32.08 62.7601 32.08 62.7601C32 62.6801 31.92 62.7601 31.92 62.8401C31.84 62.8401 31.68 62.8401 31.68 62.9201L31.76 63.0001L31.68 62.9201H31.6C31.52 62.9201 31.52 62.8401 31.52 62.8401V62.7601L31.2 62.5201H31.12C31.12 62.5201 30.96 62.5201 30.96 62.4401H31.04C31.04 62.4401 30.96 62.3601 31.04 62.3601C31.12 62.3601 31.2 62.3601 31.2 62.3601V62.2801C31.28 62.2801 31.28 62.4401 31.28 62.4401C31.28 62.4401 31.36 62.4401 31.28 62.5201L31.6 62.8401H31.68C31.76 62.8401 31.92 62.8401 31.92 62.7601C31.76 62.5201 31.92 62.3601 32 62.3601V62.5201C32 62.6001 32.08 62.6001 32.08 62.6001H32.16C32.24 62.6001 32.32 62.6801 32.32 62.6801C32.32 62.6801 32.4 62.6001 32.48 62.6001H32.56C32.64 62.6001 32.64 62.5201 32.64 62.5201V62.3601C32.8 62.3601 32.96 62.5201 32.72 62.7601L32.88 62.8401C32.88 62.7601 32.88 62.7601 32.96 62.7601L33.04 62.8401L33.12 62.7601C33.2 62.7601 33.2 62.8401 33.2 62.9201C33.04 62.9201 32.96 63.0001 32.88 63.0001ZM32.8 62.6001H32.96H32.8ZM33.52 61.7201C33.52 61.8001 33.44 61.9601 33.36 61.9601C33.2 61.9601 33.36 62.0401 33.44 62.0401C33.44 62.1201 33.36 62.2001 33.2 62.2001C33.12 62.2001 33.12 62.2801 33.2 62.2801C33.12 62.3601 33.04 62.3601 32.96 62.3601C32.88 62.3601 32.96 62.4401 32.96 62.4401C32.88 62.5201 32.8 62.5201 32.72 62.4401C32.64 62.3601 32.64 62.2801 32.64 62.2001C32.56 62.2001 32.48 62.2001 32.4 62.3601V62.1201C32.48 62.1201 32.56 62.1201 32.56 62.1201C32.64 62.1201 32.72 62.0401 32.72 61.9601C32.72 61.8801 32.72 61.8801 32.64 61.8001C32.96 61.6401 33.2 61.1601 33.28 61.0801C33.36 61.1601 33.36 61.3201 33.28 61.4801C33.2 61.5601 33.44 61.4801 33.44 61.4801C33.52 61.5601 33.44 61.7201 33.36 61.8001C33.28 61.7201 33.44 61.7201 33.52 61.7201Z" fill="#D0D2D3"/>
<path d="M18.2397 10.8401C17.5997 11.0001 17.3597 11.0801 16.9597 11.2401C16.2397 13.0001 17.5997 15.0001 19.1997 15.9601C19.5197 15.8001 20.1597 15.4801 20.8797 15.5601C19.0397 14.4401 17.5197 12.8401 18.2397 10.8401Z" fill="#1FC150"/>
<path d="M45.6798 10.8401C46.3198 11.0001 46.5598 11.0801 46.9598 11.2401C47.5998 13.0001 46.3198 15.0001 44.7198 15.9601C44.3998 15.8001 43.7598 15.4801 43.0398 15.5601C44.9598 14.4401 46.3998 12.8401 45.6798 10.8401Z" fill="#1FC150"/>
<path d="M16.9598 14.2801C15.5998 14.2801 13.7598 12.9201 12.3198 13.8001L12.6398 14.9201C14.1598 14.2801 15.5198 15.8801 17.7598 15.3201C17.4398 14.9201 17.1998 14.6001 16.9598 14.2801Z" fill="#1FC150"/>
<path d="M18.7198 13.3201C18.8798 13.6401 19.1998 13.9601 19.5198 14.2001C20.3198 13.1601 20.0798 11.0801 18.5598 10.8401V10.9201C18.3998 11.2401 18.3998 11.5601 18.3198 11.8001C18.7998 12.2001 18.8798 12.7601 18.7198 13.3201Z" fill="#1FC150"/>
<path d="M46.9599 14.2801C46.7199 14.6001 46.4799 15.0001 46.1599 15.2401C48.3999 15.8001 49.7599 14.2001 51.2799 14.8401L51.5999 13.7201C50.1599 12.9201 48.3199 14.2801 46.9599 14.2801Z" fill="#1FC150"/>
<path d="M45.1998 13.3201C45.0398 12.8401 45.1198 12.2001 45.5998 11.8001C45.5998 11.5601 45.5198 11.2401 45.3598 10.9201V10.8401C43.8398 11.0801 43.6798 13.1601 44.3998 14.2001C44.7198 13.8801 45.0398 13.6401 45.1998 13.3201Z" fill="#1FC150"/>
<path d="M27.9199 16.2001C29.9999 15.0801 31.2799 13.1601 31.3599 10.1201C30.7999 10.1201 30.2399 10.2001 29.7599 10.2801C29.7599 12.2801 29.1199 13.6401 27.9199 14.5201C28.2399 14.4401 28.4799 14.3601 28.7199 14.2801L29.5199 13.8801L29.1199 14.6801C28.7999 15.4801 28.3999 15.9601 27.9199 16.2001Z" fill="#1FC150"/>
<path d="M35.9197 16.2001C35.5197 15.9601 35.0397 15.4801 34.7197 14.7601L34.3197 13.9601L35.1197 14.3601C35.3597 14.4401 35.5997 14.5201 35.9197 14.6001C34.7197 13.7201 34.0797 12.3601 34.0797 10.3601C33.5997 10.2801 33.1197 10.2001 32.4797 10.2001C32.6397 13.1601 33.9197 15.1601 35.9197 16.2001Z" fill="#1FC150"/>
<path d="M37.9198 30.8401L37.5998 30.6001V29.7201H36.7998L36.5598 29.3201C35.6798 27.6401 33.9998 26.6001 32.1598 26.6001H31.7598C29.9198 26.6001 28.1598 27.6401 27.3598 29.3201L27.1198 29.7201H26.3998V30.6001L26.0798 30.8401C23.8398 32.5201 22.5598 35.0801 22.5598 37.8001C22.5598 40.5201 23.8398 43.0801 26.0798 44.7601L26.3998 45.0001V45.8801H27.1198L27.3598 46.2801C28.2398 47.9601 29.9198 49.0001 31.7598 49.0001H32.1598C33.9998 49.0001 35.7598 47.9601 36.5598 46.2801L36.7998 45.8801H37.5998V45.0001L37.9198 44.7601C40.1598 43.0801 41.4398 40.5201 41.4398 37.8001C41.4398 35.0801 40.1598 32.6001 37.9198 30.8401ZM35.1198 45.4001H28.7198V44.0401H29.1998V43.3201H29.5198V42.6801H30.0798V38.3601H29.2798V36.1201H30.0798V35.7201H29.7598V35.1601H29.4398V33.9601H29.7598V33.4001H30.1598V33.0001C29.5998 32.4401 29.0398 31.4001 29.5998 30.6801C30.1598 29.9601 31.2798 30.4401 31.2798 30.4401C31.2798 30.3601 31.2798 30.1201 31.2798 30.0401H31.1998L31.2798 29.8801L31.1198 29.9601V28.6801L31.2798 28.7601L31.1998 28.6001H32.4798L32.3998 28.7601L32.5598 28.6801V29.9601L32.3998 29.8801L32.4798 30.0401H32.3998C32.3998 30.1201 32.3998 30.3601 32.3998 30.4401C32.3998 30.4401 33.5998 29.9601 34.0798 30.6801C34.6398 31.4801 34.0798 32.4401 33.5998 33.0001V33.4001H33.9998V33.9601H34.3998V35.1601H34.0798V35.7201H33.7598V36.1201H34.5598V38.3601H33.7598V42.6801H34.3198V43.3201H34.6398V44.0401H35.1198V45.4001Z" fill="#1FC150"/>
<path d="M30.3997 32.6001H31.1997C31.1997 31.8801 31.0397 31.0001 30.6397 30.6001L30.3997 30.3601C30.1597 30.3601 29.9997 30.4401 29.8397 30.6801C29.3597 31.4001 29.9997 32.2801 30.3997 32.6001Z" fill="#FFD400"/>
<path d="M33.7598 33.5601H30.0798V33.8801H33.7598V33.5601Z" fill="#FFD400"/>
<path d="M33.9998 34.12H29.7598V34.68H33.9998V34.12Z" fill="#FFD400"/>
<path d="M33.4397 35.5601H30.4797V36.1201H33.4397V35.5601Z" fill="#FFD400"/>
<path d="M33.3597 32.8401H30.4797V33.3201H33.3597V32.8401Z" fill="#FFD400"/>
<path d="M33.3598 32.6001C33.7598 32.2001 34.3998 31.4001 33.9198 30.7601C33.7598 30.5201 33.5998 30.4401 33.3598 30.4401L33.1198 30.6801C32.7198 31.0001 32.5598 31.9601 32.5598 32.6801H33.3598V32.6001Z" fill="#FFD400"/>
<path d="M31.6797 29.5601H32.1597L32.0797 29.2401L32.3197 29.3201V28.9201L32.0797 29.0001L32.1597 28.6801H31.6797L31.7597 29.0001L31.4397 28.9201V29.3201L31.7597 29.2401L31.6797 29.5601Z" fill="#FFD400"/>
<path d="M31.9199 30.36C32.0966 30.36 32.2399 30.2168 32.2399 30.04C32.2399 29.8633 32.0966 29.72 31.9199 29.72C31.7431 29.72 31.5999 29.8633 31.5999 30.04C31.5999 30.2168 31.7431 30.36 31.9199 30.36Z" fill="#FFD400"/>
<path d="M31.4399 32.6001H32.3199C32.3199 31.8001 32.4799 30.8401 32.9599 30.4401L32.3199 30.6801L32.2399 30.4401C32.1599 30.5201 32.0799 30.5201 31.9199 30.5201C31.8399 30.5201 31.6799 30.5201 31.5999 30.4401L31.5199 30.6801L30.8799 30.4401C31.3599 30.8401 31.4399 31.8001 31.4399 32.6001Z" fill="#FFD400"/>
<path d="M33.7598 35H30.0798V35.32H33.7598V35Z" fill="#FFD400"/>
<path d="M33.9198 43H29.8398V43.4H33.9198V43Z" fill="#FFD400"/>
<path d="M34.3198 43.5601H29.5198V44.0401H34.3198V43.5601Z" fill="#FFD400"/>
<path d="M34.7998 44.28H29.0398V45H34.7998V44.28Z" fill="#FFD400"/>
<path d="M33.4397 42.76V38.2H30.4797V42.68H33.4397V42.76ZM32.7197 38.68H32.9597V42.12H32.7197V38.68ZM31.8397 38.68H32.0797V42.12H31.8397V38.68ZM30.9597 38.68H31.1997V42.12H30.9597V38.68Z" fill="#FFD400"/>
<path d="M31.0398 37.2401H31.1198V37.0801L31.0398 37.2401Z" fill="#FFD400"/>
<path d="M29.5999 36.3601V37.9601H34.1599V36.3601H29.5999ZM30.4799 37.5601C30.3999 37.5601 30.3199 37.5601 30.2399 37.4801V37.3201C30.2399 37.3201 30.2399 37.3201 30.3199 37.3201L30.3999 37.4001H30.4799C30.5599 37.4001 30.6399 37.4001 30.6399 37.3201C30.6399 37.2401 30.6399 37.2401 30.4799 37.2401H30.3999C30.4799 37.2401 30.4799 37.2401 30.4799 37.1601C30.4799 37.0801 30.3999 37.0801 30.3999 37.0801H30.3199V37.1601H30.2399V37.0001C30.3199 37.0001 30.3999 36.9201 30.4799 36.9201C30.6399 36.9201 30.7199 37.0001 30.7199 37.0801C30.7199 37.1601 30.7199 37.2401 30.6399 37.2401C30.7199 37.2401 30.7199 37.3201 30.7199 37.4001C30.7199 37.4801 30.5599 37.5601 30.4799 37.5601ZM31.5199 37.4801H31.1999C31.1999 37.4801 31.1999 37.4801 31.1999 37.4001H31.2799L31.1999 37.3201H30.9599V37.4001H31.0399C31.0399 37.4001 31.0399 37.4001 31.0399 37.4801H30.7999C30.7999 37.4801 30.7999 37.4801 30.7999 37.4001H30.8799L31.1199 36.8401H31.1999L31.5199 37.4801ZM32.2399 37.5601H31.9999L31.7599 37.2401V37.4001H31.8399C31.8399 37.4001 31.8399 37.4001 31.8399 37.4801H31.5199C31.5199 37.4801 31.5199 37.4801 31.5199 37.4001H31.5999V36.9201H31.5199C31.5199 36.9201 31.5199 36.9201 31.5199 36.8401H31.8399C31.8399 36.8401 31.8399 36.8401 31.8399 36.9201H31.7599V37.1601L31.9199 36.9201C31.9199 36.9201 31.9199 36.9201 31.9199 36.8401H32.1599C32.1599 36.8401 32.1599 36.8401 32.1599 36.9201H32.0799L31.9199 37.0801L32.1599 37.4001L32.2399 37.5601C32.2399 37.4801 32.2399 37.4801 32.2399 37.5601ZM32.5599 37.5601C32.3199 37.5601 32.2399 37.4001 32.2399 37.2401C32.2399 37.0001 32.3199 36.9201 32.5599 36.9201C32.7999 36.9201 32.8799 37.0801 32.8799 37.2401C32.8799 37.4001 32.7199 37.5601 32.5599 37.5601ZM33.5999 37.5601H33.2799C33.2799 37.5601 33.2799 37.5601 33.2799 37.4801H33.3599V37.2401H33.1199V37.4001H33.1999C33.1999 37.4001 33.1999 37.4001 33.1999 37.4801H32.8799C32.8799 37.4801 32.8799 37.4801 32.8799 37.4001H32.9599V36.9201H32.8799C32.8799 36.9201 32.8799 36.9201 32.8799 36.8401H33.1999C33.1999 36.8401 33.1999 36.8401 33.1999 36.9201H33.1199V37.0801H33.3599V36.9201H33.2799C33.2799 36.9201 33.2799 36.9201 33.2799 36.8401H33.5999C33.5999 36.8401 33.5999 36.8401 33.5999 36.9201H33.5199V37.4001L33.5999 37.5601C33.5999 37.4801 33.5999 37.4801 33.5999 37.5601Z" fill="#FFD400"/>
<path d="M32.5599 36.9201C32.4799 36.9201 32.3999 37.0001 32.3999 37.1601C32.3999 37.3201 32.4799 37.4001 32.5599 37.4001C32.6399 37.4001 32.7199 37.2401 32.7199 37.1601C32.6399 37.0801 32.6399 36.9201 32.5599 36.9201Z" fill="#FFD400"/>
<path d="M49.9199 60.3601C49.9999 60.3601 49.9999 60.3601 49.9199 60.3601C49.8399 60.1201 49.7599 60.0401 49.5999 59.8801C49.5999 59.9601 49.6799 60.1201 49.5999 60.2001L49.9199 60.3601Z" fill="#FFE000"/>
<path d="M27.52 60.3601C27.52 61.0801 27.6 61.8001 27.76 62.5201C28.32 62.2801 28.88 62.0401 29.36 61.6401C29.44 60.8401 29.92 60.1201 30.64 59.7201C30.72 59.4801 30.8 59.1601 30.88 58.9201L27.52 60.3601Z" fill="#FFE000"/>
<path d="M31.8398 58.4401L31.2798 58.6801C31.1998 58.9201 31.1198 59.2401 31.0398 59.4801C31.3598 59.4001 31.6798 59.3201 31.9998 59.3201C32.3198 59.3201 32.6398 59.4001 32.9598 59.4801C32.8798 59.1601 32.7998 58.8401 32.7198 58.5201L31.9998 58.8401L31.8398 58.4401Z" fill="#FFE000"/>
<path d="M33.4399 59.6401C34.1599 60.0401 34.6399 60.7601 34.7199 61.5601C35.1999 61.9601 35.7599 62.2801 36.3199 62.4401C36.4799 61.6401 36.6399 60.9201 36.5599 60.2801L33.1199 58.6001C33.1999 59.0001 33.2799 59.3201 33.4399 59.6401Z" fill="#FFE000"/>
<path d="M30.8799 64.3601C31.1199 64.9201 31.5199 65.7201 31.9999 66.1201C32.4799 65.7201 32.9599 64.9201 33.1999 64.3601C32.7999 64.7601 31.3599 64.7601 30.8799 64.3601Z" fill="#FFE000"/>
<path d="M17.04 62.6801L17.36 64.2001L16.96 63.6401L16.16 65.0001C15.92 65.3201 16.08 65.5601 16.4 65.4001L16.72 65.3201C17.04 65.2401 17.52 64.8401 17.68 64.4401L17.84 64.2001C18.56 63.0001 17.04 62.6801 17.04 62.6801Z" fill="#FFE000"/>
<path d="M10.7999 63.24L11.5199 63.16L10.8799 61.2401C10.7999 60.9201 10.4799 60.7601 10.1599 60.8401L9.9199 60.92C9.5999 61 9.4399 61.3201 9.5199 61.6401L9.9199 62.92C9.9999 63.08 10.3999 63 10.4799 63.24C11.0399 64.28 11.9199 64.28 11.9199 64.28L11.6799 63.48L10.7999 63.24Z" fill="#FFE000"/>
<path d="M15.8398 60.9201L15.5198 59.8801C15.4398 59.5601 15.1198 59.4001 14.7998 59.4801L14.5598 59.5601C14.2398 59.6401 14.0798 59.9601 14.1598 60.2801L14.7198 62.0401L15.5198 61.3201L14.8798 62.4401L14.9598 62.6001L15.1998 63.4001C15.1998 63.4001 15.9198 62.4401 15.7598 61.6401C15.5998 61.4001 15.9198 61.2401 15.8398 60.9201Z" fill="#FFE000"/>
<path d="M13.1999 60.52C13.1199 60.28 12.7999 60.12 12.5599 60.2L12.1599 60.36C11.9199 60.44 11.7599 60.76 11.8399 61L12.3199 62.44L13.4399 63H12.7199C12.8799 63.72 13.2799 64.04 13.7599 64.36C13.7599 64.36 14.1599 63.4 13.9199 62.68L13.1999 60.52Z" fill="#FFE000"/>
<path d="M46.7999 59.0801L47.7599 59.5601C47.9199 59.3201 48.3199 59.0001 48.8799 59.1601L49.1199 59.2401C49.1199 59.2401 49.1199 59.2401 49.1999 59.2401C47.4399 57.1601 46.3199 55.1601 46.0799 52.6001L42.8799 53.8801C43.0399 54.3601 43.2799 54.8401 43.5199 55.3201L44.3999 54.2801L44.6399 54.5201L43.6799 55.6401C43.8399 55.8801 43.9999 56.1201 44.1599 56.3601L44.8799 55.4801L45.1199 55.7201L44.3199 56.6801C44.4799 56.9201 44.6399 57.1601 44.8799 57.3201L45.5999 56.5201L45.8399 56.7601L45.1199 57.6401C45.5199 58.2001 46.0799 58.6801 46.7999 59.0801Z" fill="#FFE000"/>
<path d="M15.0398 59.16C15.2798 59.16 15.5198 59.32 15.6798 59.48L17.9198 58.6C18.3198 58.36 18.6398 58.04 18.9598 57.72L18.1598 56.76L18.3998 56.52L19.1998 57.48C19.3598 57.24 19.5198 57.08 19.7598 56.84L18.7198 55.8L18.9598 55.56L19.7598 56.6C19.9198 56.36 20.0798 56.12 20.2398 55.88L19.1998 54.6L19.4398 54.36L20.3998 55.48C20.8798 54.52 21.1998 53.64 21.2798 52.84L17.9998 51.32C17.9998 54.36 16.9598 56.84 15.0398 59.16Z" fill="#FFE000"/>
<path d="M3.91979 16.5201V15.6401L4.47979 16.3601C4.95979 17.0001 5.43979 17.5601 5.91979 18.0401C5.59979 17.3201 5.35979 16.4401 5.27979 15.4801C3.83979 13.4001 2.63979 11.4001 2.23979 9.88007C1.35979 14.0401 2.47979 16.8401 4.31979 19.0801C4.07979 18.2801 3.91979 17.4801 3.91979 16.5201Z" fill="#FFE000"/>
<path d="M11.6 31.1601C11.52 31.0801 11.52 31.0001 11.44 30.9201L10.96 30.2001L11.76 30.4401C12.32 30.6001 12.96 30.6801 13.68 30.6801C12.4 30.3601 11.12 29.7201 10.24 28.2801C7.99997 27.2401 5.75997 25.5601 4.31997 23.5601C3.75997 23.1601 3.19997 22.7601 2.71997 22.2001C3.67997 26.3601 7.75997 29.9601 11.6 31.1601Z" fill="#FFE000"/>
<path d="M12.7998 27.8001C11.4398 27.2401 10.4798 26.2801 9.9198 25.3201C8.2398 24.4401 6.3198 23.0001 5.1198 20.9201C4.39979 20.3601 3.7598 19.7201 3.03979 18.9201C3.19979 23.0001 6.5598 26.1201 9.9998 27.8001C9.9198 27.7201 9.9198 27.6401 9.8398 27.4801L9.5198 26.7601L10.2398 27.0801C11.1198 27.4801 11.9998 27.6401 12.7998 27.8001Z" fill="#FFE000"/>
<path d="M10.1599 22.2001C10.0799 21.9601 10.0799 21.7201 9.99994 21.4801L9.91994 20.7601L10.4799 21.1601C11.1199 21.6401 11.7599 21.9601 12.3999 22.2801C11.8399 21.8001 11.3599 21.0001 11.2799 19.8801C8.47994 18.5201 7.19994 16.8401 5.43994 14.7601C5.67994 18.4401 7.75994 20.5201 10.1599 22.2001Z" fill="#FFE000"/>
<path d="M16.0799 37.1601C16.3999 36.6801 16.7999 36.2801 17.2799 36.0401C16.5599 36.1201 15.8399 36.1201 15.1199 36.1201C12.7999 36.1201 10.7199 35.6401 8.95994 34.7601C8.39994 34.9201 7.91994 35.0801 7.43994 35.4001C9.03994 37.1601 12.3199 37.8801 16.0799 37.1601Z" fill="#FFE000"/>
<path d="M18.56 37.9601C18.4 37.9601 18.16 37.9601 17.92 37.9601C17.36 37.9601 16.8 37.8801 16.16 37.8001L15.68 37.7201L15.84 37.48C14.96 37.64 14.08 37.7201 13.2 37.7201C12.4 37.7201 11.68 37.6401 10.96 37.5601C9.83997 37.8801 9.03997 38.2801 8.71997 39.0001C12.32 40.0401 15.36 39.4801 18.56 37.9601Z" fill="#FFE000"/>
<path d="M18.0799 35.5601H17.9999C17.0399 35.5601 15.8399 35.4001 14.3999 35.0801L13.9199 35.0001L14.1599 34.6001C14.2399 34.4401 14.3999 34.2801 14.4799 34.1201C10.9599 33.9601 8.07988 32.6801 5.83988 30.2801C5.43988 30.3601 5.11988 30.5201 4.87988 30.5201C7.91988 35.3201 12.8799 36.2801 18.0799 35.5601Z" fill="#FFE000"/>
<path d="M14.8 33.8001C14.96 33.6401 15.12 33.4801 15.28 33.4001C13.84 33.0801 12.72 32.4401 12 31.5601C10.4 31.1601 8.64003 30.2801 7.12003 29.0001C6.00003 28.1201 5.12003 27.1601 4.32003 26.1201C3.92003 26.0401 3.52003 25.9601 3.28003 25.9601C5.68003 30.8401 9.36003 33.6401 14.8 33.8001Z" fill="#FFE000"/>
<path d="M13.2799 22.4401C16.4799 23.8801 19.5199 24.6001 19.9199 28.0401C18.5599 23.5601 14.5599 24.2801 10.3199 21.4001C10.4799 23.0801 11.6799 24.2001 13.5199 24.9201C15.8399 25.7201 18.1599 26.4401 19.0399 28.7601C16.5599 25.1601 12.7199 26.2001 9.67993 23.8801C10.0799 25.3201 11.4399 27.4001 14.2399 27.8001C16.2399 28.2801 17.2799 28.6001 18.3199 30.1201C16.1599 27.8801 12.9599 28.5201 10.0799 27.3201C11.8399 31.4001 15.9999 30.1201 18.3999 31.8001C16.3199 30.8401 13.4399 31.3201 11.6799 30.7601C12.5599 32.1201 13.9999 32.8401 15.5999 33.1601C16.4799 32.6001 17.4399 32.6001 18.4799 32.5201C18.8799 32.5201 19.3599 32.4401 19.7599 32.4401C18.5599 31.1601 18.7999 28.9201 20.8799 29.0001C21.1199 21.6401 14.3199 22.1201 11.6799 18.9201C11.4399 20.9201 12.3999 21.9601 13.2799 22.4401Z" fill="#FFE000"/>
<path d="M25.44 16.1201C26.24 16.4401 27.92 16.6001 28.88 14.6001C28.16 15.0001 27.2 15.0001 26.4 14.9201C25.28 14.8401 24.16 14.6001 22.96 14.6801C22.64 14.6801 22.08 15.0001 22 15.4001C24.08 15.0001 24.64 15.8001 25.44 16.1201Z" fill="#FFE000"/>
<path d="M30.16 20.6801C30.16 21.3201 30.16 21.9601 29.84 22.4401L29.44 23.0801L29.28 22.3601C29.2 22.1201 29.12 21.8801 29.04 21.6401C28.88 22.1201 28.72 22.6001 28.4 23.0001L27.92 23.7201L27.84 22.8401C27.84 22.6801 27.84 22.6001 27.76 22.4401C27.68 22.7601 27.52 23.0801 27.28 23.4001L27.2 23.5601C27.12 24.1201 27.04 24.6801 26.96 25.0001C27.68 24.8401 28.56 23.8801 28.88 23.0801C29.04 23.5601 29.36 24.2001 29.68 24.4401C30.24 23.8001 30.4 23.0001 30.56 22.0401C30.88 22.5201 31.28 22.6801 32 22.7601C32.72 22.6801 33.12 22.4401 33.44 22.0401C33.52 23.0001 33.76 23.8001 34.32 24.4401C34.56 24.2001 34.96 23.5601 35.12 23.0801C35.44 23.8001 36.32 24.8401 37.04 25.0001C36.96 24.6801 36.88 24.1201 36.8 23.5601L36.72 23.4801C36.48 23.1601 36.32 22.8401 36.24 22.5201C36.24 22.6001 36.24 22.7601 36.16 22.9201L36 23.7201L35.52 23.0001C35.2 22.6001 35.04 22.1201 34.88 21.6401C34.8 21.8801 34.72 22.1201 34.64 22.3601L34.48 23.0801L34.08 22.4401C33.76 21.9601 33.76 21.3201 33.76 20.6801C33.36 21.0801 32.88 21.4001 32.48 21.6401C32.4 22.0401 32.16 22.4401 31.92 22.7601C31.68 22.4401 31.52 21.9601 31.36 21.6401C31.04 21.4001 30.56 21.0801 30.16 20.6801Z" fill="#FFE000"/>
<path d="M27.76 16.3601C26.4 17.0801 25.28 16.5201 24.64 16.0401C23.84 15.4801 23.04 15.4801 22.24 15.6401C23.76 16.6001 23.2 18.3601 24.24 18.8401C24.72 19.1601 25.84 19.8801 26.32 21.1601C26.56 20.7601 26.8 19.3201 25.52 17.7201C25.84 17.8801 26.24 18.3601 26.24 18.3601C27.04 18.8401 27.68 19.4001 28.08 20.0401C28.24 19.0801 27.76 18.2001 26.96 17.2401C28.24 18.7601 29.68 18.8401 30.64 18.5201C29.52 18.4401 28.32 17.3201 27.76 16.3601ZM22.96 15.8801C23.2 15.8801 23.68 15.8001 24.4 16.2001C24.16 16.4401 23.6 16.8401 22.96 15.8801Z" fill="#FFE000"/>
<path d="M28.16 18.7601C28.32 19.1601 28.4 19.6401 28.32 20.2001L28.16 21.0801L27.68 20.3601C27.36 19.8801 26.96 19.4801 26.48 19.1601C26.8 20.1201 26.72 20.8401 26.56 21.3201C26.8 21.9601 26.96 22.6801 26.96 23.3201C27.44 22.6001 27.6 21.8801 27.6 21.0801C27.84 21.6401 28 22.2001 28.08 22.8401C28.56 22.1201 28.8 21.4001 28.88 20.6001C29.2 21.1601 29.44 21.7201 29.52 22.2801C29.92 21.7201 29.76 20.6801 29.68 19.8001C30.24 20.4401 31.12 21.2401 31.68 21.4801C31.36 20.6001 30.72 19.8001 30.08 19.1601C30 19.0801 28.88 19.2401 28.16 18.7601Z" fill="#FFE000"/>
<path d="M25.5999 26.8401C23.5999 27.8801 23.6799 29.8801 22.6399 30.2801C22.8799 30.3601 23.0399 30.4401 23.2799 30.4401C23.5199 30.2001 23.6799 29.8801 23.8399 29.5601C24.4799 28.6001 25.1999 27.4001 27.1199 26.9201C27.1199 26.8401 27.0399 26.7601 27.0399 26.6801C26.7199 26.7601 26.4799 26.8401 26.2399 26.8401C26.1599 26.8401 26.0799 26.8401 25.9999 26.8401H25.5999Z" fill="#FFE000"/>
<path d="M13.52 25.3201C11.92 24.6801 10.88 23.8001 10.4 22.6801C8.79999 21.7201 7.43999 20.5201 6.39999 19.0001C5.59999 18.2801 4.95999 17.4801 4.23999 16.6001C4.23999 20.6801 6.87999 23.3201 9.67999 24.8401C9.59999 24.6001 9.43999 24.2801 9.35999 24.0401L9.11999 23.0801L9.83999 23.6401C11.04 24.5201 12.24 24.9201 13.52 25.3201Z" fill="#FFE000"/>
<path d="M2.71991 19V18.04L3.35991 18.76C3.91991 19.48 4.47991 19.96 5.03991 20.44L4.07991 19.24C3.03991 17.96 2.31991 16.52 1.91991 15.08C1.75991 14.76 1.59991 14.44 1.43991 14.12C0.559913 18.36 2.07991 20.44 3.83991 22.52C3.19991 21.48 2.79991 20.28 2.71991 19Z" fill="#FFE000"/>
<path d="M17.76 43.8C17.36 44.04 16.96 44.2 16.48 44.36L17.52 44.84C17.52 44.6 17.68 44.2 17.76 43.8Z" fill="#FFE000"/>
<path d="M19.5999 46.1201L19.9199 46.2801L20.1599 46.1201L20.7199 46.3601C20.7199 45.9601 20.7199 45.4001 20.7199 44.9201C20.3999 45.3201 19.9999 45.8001 19.5999 46.1201Z" fill="#FFE000"/>
<path d="M22.3999 47.1601L22.7999 47.3201L23.0399 47.7201L23.6799 48.0401C23.5199 47.4001 23.4399 46.6001 23.4399 45.8801C23.1199 46.3601 22.7999 46.7601 22.3999 47.1601Z" fill="#FFE000"/>
<path d="M11.0398 41.88L12.1598 42.44C14.6398 42.36 16.6398 41.32 18.6398 40.04V39.96C18.6398 39.24 19.1198 38.36 19.5198 37.8C17.4398 38.92 15.5998 39.56 13.7598 39.8C12.4798 40.44 11.4398 41.08 11.0398 41.88Z" fill="#FFE000"/>
<path d="M59.44 16.3601L60 15.6401V16.5201C60 17.4801 59.84 18.2801 59.6 19.0801C61.44 16.8401 62.56 14.0401 61.68 9.88007C61.28 11.4001 60.08 13.4001 58.64 15.4801C58.56 16.4401 58.32 17.2401 58 18.0401C58.48 17.4801 58.96 16.9201 59.44 16.3601Z" fill="#FFE000"/>
<path d="M53.5999 28.3601C52.7199 29.8001 51.4399 30.3601 50.1599 30.7601C50.8799 30.6801 51.5999 30.6801 52.0799 30.5201L52.8799 30.2801L52.3999 31.0001C52.3199 31.0801 52.3199 31.1601 52.2399 31.2401C56.0799 30.0401 60.1599 26.4401 61.0399 22.3601C60.4799 22.8401 59.9199 23.3201 59.4399 23.7201C58.0799 25.7201 55.8399 27.3201 53.5999 28.3601Z" fill="#FFE000"/>
<path d="M53.9199 27.8801C57.3599 26.1201 60.7199 23 60.8799 19C60.2399 19.8 59.5199 20.44 58.7999 21C57.5999 23.08 55.5999 24.4401 53.9999 25.4001C53.4399 26.4401 52.4799 27.3201 51.1199 27.8801C51.9999 27.7201 52.7999 27.5601 53.6799 27.2401L54.3999 26.9201L54.0799 27.6401C53.9999 27.6401 53.9999 27.8001 53.9199 27.8801Z" fill="#FFE000"/>
<path d="M51.4399 22.2801C52.0799 21.9601 52.7199 21.6401 53.3599 21.1601L53.9199 20.7601L53.8399 21.4801C53.8399 21.7201 53.7599 21.9601 53.6799 22.2001C56.1599 20.6001 58.1599 18.4401 58.3199 14.8401C56.6399 16.9201 55.3599 18.6001 52.4799 19.9601C52.4799 21.0001 51.9999 21.8001 51.4399 22.2801Z" fill="#FFE000"/>
<path d="M48.7999 36.1201C48.1599 36.1201 47.4399 36.1201 46.6399 36.0401C47.0399 36.2801 47.4399 36.6801 47.8399 37.1601C51.5999 37.8801 54.8799 37.2401 56.4799 35.4801C55.9999 35.1601 55.5199 34.9201 54.9599 34.8401C53.1999 35.6401 51.1199 36.1201 48.7999 36.1201Z" fill="#FFE000"/>
<path d="M52.9599 37.5601C52.2399 37.7201 51.5199 37.7201 50.7199 37.7201C49.8399 37.7201 48.9599 37.64 48.0799 37.48L48.2399 37.7201L47.7599 37.8001C47.1199 37.9601 46.5599 37.9601 45.9999 37.9601C45.7599 37.9601 45.5999 37.9601 45.3599 37.9601C48.4799 39.4801 51.5999 40.0401 55.1199 39.0001C54.8799 38.2801 54.0799 37.8801 52.9599 37.5601Z" fill="#FFE000"/>
<path d="M49.4398 34.1201C49.5198 34.2801 49.6798 34.4401 49.7598 34.6001L49.9998 35.0001L49.5198 35.0801C48.0798 35.4001 46.8798 35.5601 45.9198 35.5601H45.8398C50.9598 36.2801 55.9999 35.3201 59.0399 30.6001C58.7999 30.5201 58.3999 30.4401 58.0799 30.3601C55.7598 32.6801 52.8799 33.9601 49.4398 34.1201Z" fill="#FFE000"/>
<path d="M56.88 29.08C55.36 30.28 53.6 31.16 52 31.64C51.2 32.52 50.08 33.16 48.72 33.48C48.88 33.64 49.04 33.72 49.2 33.88C54.64 33.64 58.32 30.84 60.8 26.12C60.56 26.12 60.16 26.2 59.76 26.28C58.88 27.24 58 28.2 56.88 29.08Z" fill="#FFE000"/>
<path d="M44.08 32.4401C44.56 32.5201 44.96 32.5201 45.36 32.5201C46.4 32.6001 47.36 32.6001 48.24 33.1601C49.84 32.8401 51.28 32.1201 52.16 30.7601C50.4 31.3201 47.6 30.8401 45.44 31.8001C47.84 30.1201 52 31.4001 53.68 27.4801C50.8 28.6801 47.6 28.0401 45.44 30.2801C46.48 28.7601 47.52 28.4401 49.52 27.9601C52.4 27.4801 53.68 25.4801 54.08 24.0401C51.04 26.3601 47.2 25.3201 44.72 28.9201C45.68 26.5201 47.92 25.8001 50.24 25.0801C52.08 24.3601 53.28 23.2401 53.44 21.5601C49.2 24.4401 45.2 23.7201 43.84 28.2001C44.24 24.7601 47.36 23.9601 50.48 22.6001C51.36 22.0401 52.24 21.0001 52.08 19.0801C49.44 22.2001 42.64 21.8001 42.88 29.1601C45.12 28.9201 45.36 31.1601 44.08 32.4401Z" fill="#FFE000"/>
<path d="M38.48 16.1201C39.28 15.7201 39.84 15.0001 41.92 15.4001C41.84 15.0001 41.36 14.6801 40.96 14.6801C39.76 14.6001 38.64 14.8401 37.52 14.9201C36.72 15.0001 35.76 15.0001 35.04 14.6001C36 16.6001 37.68 16.4401 38.48 16.1201Z" fill="#FFE000"/>
<path d="M34.1598 19.8001C34.0798 20.6801 33.9198 21.7201 34.3198 22.2801C34.4798 21.7201 34.7198 21.0801 34.9598 20.6001C35.0398 21.4001 35.2798 22.1201 35.7598 22.8401C35.8398 22.2001 35.9998 21.6401 36.2398 21.0801C36.2398 21.8801 36.3998 22.6801 36.8798 23.3201C36.8798 22.6001 36.9598 21.9601 37.2798 21.3201C37.1198 20.8401 37.0398 20.1201 37.3598 19.1601C36.8798 19.4801 36.4798 19.9601 36.1598 20.3601L35.6798 21.0801L35.5198 20.2001C35.4398 19.7201 35.5198 19.2401 35.6798 18.7601C34.9598 19.1601 33.8398 19.0801 33.6798 19.0801C33.0398 19.7201 32.4798 20.5201 32.0798 21.4001C32.7998 21.1601 33.5998 20.4401 34.1598 19.8001Z" fill="#FFE000"/>
<path d="M38.3199 26.8401L37.9999 26.9201C37.9199 26.9201 37.8399 26.9201 37.7599 26.9201C37.5199 26.9201 37.1999 26.8401 36.9599 26.7601C36.9599 26.8401 36.8799 26.9201 36.8799 27.0001C38.7999 27.4001 39.5199 28.6001 40.1599 29.6401C40.3199 29.9601 40.5599 30.2801 40.7199 30.5201C40.9599 30.5201 41.1199 30.4401 41.3599 30.3601C40.2399 29.8801 40.3199 27.8801 38.3199 26.8401Z" fill="#FFE000"/>
<path d="M54.24 24.8401C57.04 23.2401 59.68 20.6001 59.68 16.6001C58.96 17.5601 58.24 18.2801 57.52 19.0001C56.56 20.6001 55.12 21.8001 53.6 22.7601C53.12 23.8801 52.08 24.6801 50.56 25.3201H50.48C51.68 25.0001 52.96 24.6001 54.08 23.7201L54.8 23.1601L54.56 24.1201C54.48 24.2801 54.32 24.5201 54.24 24.8401Z" fill="#FFE000"/>
<path d="M58.8799 20.4401C59.4399 19.9601 59.9999 19.4001 60.5599 18.7601L61.1999 18.0401V19.0001C61.1199 20.2801 60.7999 21.5601 60.1599 22.6801C61.9199 20.5201 63.4399 18.5201 62.5599 14.2801C62.3999 14.6001 62.2399 14.9201 62.0799 15.2401C61.6799 16.7601 60.9599 18.1201 59.9199 19.4001L58.8799 20.4401Z" fill="#FFE000"/>
<path d="M52.4799 41.4C51.9999 40.84 51.1199 40.36 50.1599 39.8C48.3199 39.56 46.4799 38.92 44.3999 37.8C44.8799 38.36 45.2799 39.24 45.2799 39.96V40.04C47.0399 41.16 48.7999 42.04 50.8799 42.28C51.3599 41.96 51.9199 41.64 52.4799 41.4Z" fill="#FFE000"/>
<path d="M47.1199 44.28C46.7999 44.12 46.4799 43.96 46.1599 43.8C46.2399 44.12 46.2399 44.44 46.3199 44.68C46.6399 44.6 46.8799 44.44 47.1199 44.28Z" fill="#FFE000"/>
<path d="M44.16 45.96C43.84 45.64 43.52 45.32 43.2 45C43.28 45.56 43.28 46.04 43.2 46.44C43.52 46.28 43.84 46.12 44.16 45.96Z" fill="#FFE000"/>
<path d="M40.1599 48.0401C40.6399 47.8001 41.1199 47.4801 41.6799 47.2401C41.2799 46.7601 40.8799 46.3601 40.5599 45.8801C40.4799 46.7601 40.3999 47.4801 40.1599 48.0401Z" fill="#FFE000"/>
<path d="M49.36 43.0801C49.12 42.7601 48.88 42.4401 48.56 42.1201C47.28 41.7201 46.16 41.0001 44.96 40.2801H44.88C44.72 40.2801 44.64 40.2801 44.48 40.2801C43.76 40.2801 42.96 40.0401 42.32 39.6401C42.32 39.8001 42.24 39.8801 42.24 40.0401C43.76 41.8001 45.36 43.3201 47.52 44.1201C48.16 43.7201 48.8 43.4001 49.36 43.0801Z" fill="#FFE000"/>
<path d="M45.9999 44.9201C45.9999 44.5201 45.9199 44.1201 45.7599 43.6401C44.3999 42.8401 43.1999 41.7201 42.1599 40.4401C41.9999 40.9201 41.8399 41.4001 41.6799 41.8801C42.3199 43.4001 43.1999 44.6801 44.4799 45.8001C44.9599 45.4801 45.5199 45.2401 45.9999 44.9201Z" fill="#FFE000"/>
<path d="M42.8 44.5201C42.24 43.8001 41.84 43.0001 41.52 42.2001C41.12 43.0001 40.64 43.7201 40 44.3601C40.48 45.3201 41.12 46.2001 41.92 47.0801C42.24 46.9201 42.56 46.7601 42.88 46.6001C42.96 46.0401 42.88 45.3201 42.8 44.5201Z" fill="#FFE000"/>
<path d="M40.16 45.4001C40 45.1601 39.84 44.9201 39.76 44.6801C39.44 45.0001 39.12 45.3201 38.72 45.5601V46.7601V47.0001C39.04 47.4001 39.36 47.8001 39.68 48.2001C40.08 47.5601 40.24 46.6001 40.16 45.4001Z" fill="#FFE000"/>
<path d="M37.5198 47.08C37.2798 47.4 37.1198 47.8 36.7998 48.04C37.0398 48.44 37.3598 48.92 37.6798 49.32C37.9198 49.16 38.1598 49.08 38.3998 48.92C38.5598 48.52 38.7198 48.12 38.7998 47.56C38.6398 47.4 38.4798 47.16 38.3998 47H37.5198V47.08Z" fill="#FFE000"/>
<path d="M36.5599 48.2801C36.0799 48.7601 35.5199 49.2401 34.8799 49.5601C35.1999 49.8001 35.5199 50.0401 35.8399 50.2801C36.2399 50.0401 36.7199 49.8801 37.1199 49.6401C37.1199 49.4001 37.0399 49.2401 36.9599 49.0001C36.7999 48.7601 36.7199 48.5201 36.5599 48.2801Z" fill="#FFE000"/>
<path d="M35.3599 50.5201C35.3599 50.4401 35.3599 50.36 35.3599 50.36C35.1199 50.2 34.7999 49.9601 34.5599 49.7201C33.9999 49.9601 33.3599 50.1201 32.6399 50.2001C32.8799 50.68 33.1199 51.08 33.4399 51.48C34.0799 51.16 34.7199 50.8401 35.3599 50.5201Z" fill="#FFE000"/>
<path d="M32.32 50.2001C32.24 50.2001 32.16 50.2001 32.16 50.2001H31.76C31.68 50.2001 31.6 50.2001 31.6 50.2001C31.44 50.6001 31.12 51.0001 30.96 51.4001L31.84 51.8001C31.92 51.6401 32 51.4001 32 51.2401C32.08 51.5601 32.16 51.8001 32.24 52.1201C32.56 51.9601 32.88 51.8001 33.2 51.6401C32.88 51.1601 32.56 50.6801 32.32 50.2001Z" fill="#FFE000"/>
<path d="M28.5598 50.4401L29.1198 50.68L29.2798 50.6001L30.5598 51.2401C30.7998 50.9201 31.0398 50.5201 31.1998 50.2001C30.5598 50.1201 29.9198 49.9601 29.2798 49.7201C29.1198 49.8801 28.7998 50.2801 28.5598 50.4401Z" fill="#FFE000"/>
<path d="M29.0398 49.5601C28.3998 49.2401 27.8398 48.8401 27.3598 48.2801C27.1998 48.5201 27.1198 48.7601 26.9598 48.9201C26.9598 49.0801 26.7998 49.4001 26.7998 49.4801L28.3198 50.2001C28.4798 50.1201 28.7998 49.7201 29.0398 49.5601Z" fill="#FFE000"/>
<path d="M26.4 47.0801H25.6C25.44 47.2401 25.36 47.4801 25.2 47.6401C25.2 48.0401 25.28 48.6001 25.36 48.8401L26.4 49.3201C26.64 49.0001 27.04 48.3601 27.2 48.0401C26.88 47.7201 26.64 47.4001 26.4 47.0801Z" fill="#FFE000"/>
<path d="M25.2798 46.7601V45.5601C24.8798 45.2401 24.5598 44.9201 24.2398 44.6001C24.0798 44.8401 23.9198 45.1601 23.7598 45.4001C23.6798 46.5201 23.7598 47.6401 24.0798 48.2801L24.2398 48.3601C24.5598 47.9601 24.9598 47.3201 25.1998 46.9201V46.7601H25.2798Z" fill="#FFE000"/>
<path d="M22.48 42.12C22.08 42.92 21.68 43.72 21.12 44.52C21.04 45.32 20.96 46.04 21.04 46.6L22.08 47.08C22.88 46.2 23.52 45.32 24 44.36C23.36 43.64 22.88 42.92 22.48 42.12Z" fill="#FFE000"/>
<path d="M21.76 40.3601C20.64 41.6401 19.44 42.8401 18.08 43.6401C17.92 44.2001 17.76 44.8401 17.76 45.3201L19.36 46.0401C20.72 44.9201 21.68 43.2401 22.32 41.7201C22.08 41.3201 21.92 40.8401 21.76 40.3601Z" fill="#FFE000"/>
<path d="M21.68 39.9601C21.68 39.8801 21.6 39.7201 21.6 39.6401C20.88 40.0401 20.16 40.3601 19.36 40.3601C19.2 40.3601 19.12 40.3601 18.96 40.3601H18.88C17.76 41.0801 16.56 41.7201 15.28 42.2001C14.88 42.6801 14.32 43.2401 14 43.6401L15.6 44.4401C18.16 43.5601 20.08 41.8801 21.68 39.9601Z" fill="#FFE000"/>
<path d="M49.4398 34.8401C47.3598 31.6401 44.7198 33.8801 41.5198 31.8801C41.2798 32.0401 40.9598 32.0401 40.5598 32.1201C41.4398 33.3201 41.9998 34.6801 42.2398 36.0401C43.2798 37.6401 45.4398 37.8801 47.5198 37.4801C46.7998 36.2801 45.8398 35.8801 44.7198 35.6401C43.4398 35.2401 42.3998 34.7601 42.0798 33.4001C43.1998 35.7201 46.5598 35.4001 49.4398 34.8401Z" fill="#FFE000"/>
<path d="M44.8798 39.9601C44.8798 39.1601 44.2398 38.0401 43.7598 37.7201C43.1198 37.4801 42.7198 37.1601 42.3998 36.6801C42.4798 37.0801 42.4798 37.4801 42.4798 37.8001C42.4798 38.2801 42.3998 38.8401 42.3198 39.3201C43.1998 39.8001 44.0798 40.0401 44.8798 39.9601Z" fill="#FFE000"/>
<path d="M20.08 37.72C19.6 38.12 19.04 39.16 18.96 39.96C19.84 40.04 20.64 39.8 21.52 39.24C21.44 38.76 21.44 38.28 21.44 37.8C21.44 37.4 21.44 36.92 21.52 36.52C21.2 37.08 20.8 37.4 20.08 37.72Z" fill="#FFE000"/>
<path d="M19.04 35.6401C17.92 35.8801 16.96 36.3601 16.24 37.4801C18.4 37.8801 20.64 37.6401 21.68 35.8801C21.92 34.5201 22.56 33.2401 23.36 32.1201C22.96 32.1201 22.64 32.0401 22.4 31.8801C19.28 33.8801 16.56 31.6401 14.48 34.8401C17.36 35.4801 20.72 35.8001 21.76 33.4001C21.36 34.7601 20.32 35.2401 19.04 35.6401Z" fill="#FFE000"/>
<path d="M38.7198 30.0401C39.3598 30.5201 39.9198 31.1601 40.3998 31.7201C40.8798 31.7201 41.2798 31.6401 41.6798 31.4001C39.5198 31.0001 39.9198 27.8801 36.6398 27.2401L36.5598 27.3201C36.8798 27.6401 37.1998 28.0401 37.4398 28.5201H38.3998H38.7198V28.8401V30.0401Z" fill="#FFE000"/>
<path d="M23.5999 31.8C24.0799 31.16 24.6399 30.6 25.2799 30.12V28.92V28.6H25.5999H26.3999C26.6399 28.12 26.9599 27.72 27.2799 27.4L27.1999 27.32C23.9199 28.04 24.3199 31.08 22.1599 31.48C22.6399 31.72 23.0399 31.8 23.5999 31.8Z" fill="#FFE000"/>
<path d="M27.3599 26.6001C27.4399 26.7601 27.5199 26.9201 27.5999 27.0801C27.9199 26.7601 28.2399 26.5201 28.6399 26.2801C28.5599 26.1201 28.5599 25.8801 28.5599 25.6401C28.1599 26.1201 27.7599 26.4401 27.3599 26.6001Z" fill="#FFE000"/>
<path d="M35.4399 25.72C35.4399 25.96 35.3599 26.2 35.3599 26.36C35.7599 26.6 36.0799 26.84 36.3999 27.16C36.4799 27 36.5599 26.84 36.6399 26.68C36.1599 26.44 35.7599 26.12 35.4399 25.72Z" fill="#FFE000"/>
<path d="M30.8799 25.4801C30.9599 25.4801 31.1199 25.4801 31.1999 25.4801C31.1999 25.4001 31.1199 25.2401 31.1199 25.1601C31.0399 25.2401 30.9599 25.4001 30.8799 25.4801Z" fill="#FFE000"/>
<path d="M33.04 25.4801C32.96 25.4001 32.88 25.2401 32.8 25.0801C32.8 25.2401 32.72 25.3201 32.72 25.4001C32.8 25.4801 32.96 25.4801 33.04 25.4801Z" fill="#FFE000"/>
<path d="M36.88 25.3201C36.24 25.1601 35.52 24.5201 35.12 23.8801C34.96 24.2001 34.72 24.5201 34.48 24.7601L34.24 25.0001L34 24.7601C33.52 24.2001 33.28 23.4801 33.12 22.7601C32.8 23.4001 30.96 23.4001 30.72 22.7601C30.64 23.4001 30.4 24.1201 29.84 24.7601L29.6 25.0001L29.36 24.7601C29.12 24.6001 28.96 24.2801 28.72 23.8801C28.24 24.5201 27.52 25.2401 26.96 25.3201L26.72 25.4001C26.56 25.8001 26.32 26.2001 26 26.6001C26.88 26.7601 28.16 25.9601 28.8 24.7601C28.8 25.4001 28.8 25.8001 28.88 26.2001C29.36 25.9601 29.84 25.7201 30.4 25.6401C30.72 25.2401 31.04 24.6801 31.12 23.9601C31.28 24.7601 31.36 25.1601 31.52 25.4801C31.6 25.4801 32.24 25.4801 32.32 25.4801C32.48 25.1601 32.56 24.6801 32.72 23.9601C32.8 24.6801 33.12 25.2401 33.44 25.6401C34 25.8001 34.48 25.9601 34.96 26.2001C35.04 25.8801 35.04 25.4801 35.04 24.7601C35.76 25.9601 36.96 26.7601 37.84 26.6001C37.52 26.2001 37.28 25.8001 37.12 25.4001L36.88 25.3201Z" fill="#FFE000"/>
<path d="M37.28 46.76H38.4V45.4C40.72 43.64 42.24 40.92 42.24 37.8C42.24 34.76 40.72 31.96 38.4 30.2V28.84H37.28C36.32 27 34.4 25.72 32.16 25.72H31.76C29.52 25.72 27.6 27 26.64 28.84H25.6V30.2C23.28 31.96 21.76 34.68 21.76 37.8C21.76 40.84 23.28 43.64 25.6 45.4V46.76H26.64C27.6 48.6 29.52 49.88 31.76 49.88H32.16C34.4 49.88 36.32 48.6 37.28 46.76ZM32.16 49.4H31.76C29.76 49.4 28 48.28 27.04 46.52L26.88 46.28H26V45.24L25.84 45.08C23.52 43.32 22.24 40.68 22.24 37.88C22.24 35.08 23.6 32.44 25.84 30.68L26 30.52V29.4H26.88L27.04 29.16C28 27.4 29.76 26.28 31.76 26.28H32.16C34.16 26.28 35.92 27.4 36.88 29.16L37.04 29.4H37.92V30.44L38.08 30.6C40.4 32.36 41.68 35 41.68 37.8C41.68 40.6 40.32 43.24 38.08 45L37.92 45.16V46.2H37.04L36.88 46.4401C35.92 48.2801 34.16 49.4 32.16 49.4Z" fill="#FFE000"/>
<path d="M37.0399 17.4001C36.2399 18.3601 35.7599 19.2401 35.9199 20.2001C36.3199 19.5601 36.8799 19.0001 37.7599 18.5201C37.7599 18.5201 38.1599 17.9601 38.4799 17.8801C37.1999 19.4801 37.4399 20.8401 37.6799 21.3201C38.1599 19.9601 39.2799 19.2401 39.7599 19.0001C40.7999 18.5201 40.2399 16.6801 41.7599 15.8001C40.8799 15.6401 40.0799 15.6401 39.3599 16.2001C38.7199 16.6801 37.5999 17.2401 36.2399 16.5201C35.6799 17.4001 34.4799 18.6001 33.4399 18.7601C34.3199 18.9201 35.7599 18.8401 37.0399 17.4001ZM40.9599 15.8801C40.3199 16.7601 39.8399 16.3601 39.5199 16.2001C40.2399 15.8801 40.6399 15.9601 40.9599 15.8801Z" fill="#FFE000"/>
<path d="M46.1599 63.3201L45.6799 63.8001L46.1599 62.2801C46.1599 62.2801 44.5599 62.4401 45.1999 63.8001L45.2799 64.0401C45.4399 64.4401 45.8399 64.8401 46.1599 65.0001L46.3999 65.1601C46.7199 65.3201 46.8799 65.1601 46.7199 64.7601L46.1599 63.3201Z" fill="#FFE000"/>
<path d="M53.44 61.4001L53.2 61.3201C52.88 61.1601 52.56 61.3201 52.4 61.6401L51.52 63.4801L52.24 63.6401L51.36 63.8001L51.04 64.6001C51.04 64.6001 51.92 64.7601 52.56 63.7201C52.72 63.4801 53.04 63.6401 53.12 63.4801L53.68 62.2001C53.84 61.8801 53.76 61.5601 53.44 61.4001Z" fill="#FFE000"/>
<path d="M49.3599 60.3601C49.5199 60.0401 49.3599 59.7201 49.0399 59.5601L48.7999 59.4001C48.4799 59.2401 48.1599 59.4001 47.9999 59.7201L47.5199 60.6801C47.3599 61.0001 47.6799 61.1601 47.5199 61.4801C47.2799 62.2801 47.9199 63.2401 47.9199 63.2401L48.2399 62.4401L48.3199 62.2801L47.8399 61.1601L48.5599 61.8801L49.3599 60.3601Z" fill="#FFE000"/>
<path d="M51.52 61.1601C51.6 60.9201 51.52 60.6001 51.28 60.5201L50.88 60.3601C50.64 60.2801 50.32 60.3601 50.24 60.6001L49.36 62.6001C49.04 63.3201 49.36 64.3601 49.36 64.3601C49.84 64.0401 50.24 63.7201 50.48 63.0801L49.84 63.0001L50.96 62.6001L51.52 61.1601Z" fill="#FFE000"/>
</svg>
