<svg width="60" height="60" viewBox="0 0 60 60" fill="none" xmlns="http://www.w3.org/2000/svg">
<path d="M14.8677 33.2399C14.8677 31.0113 16.575 29.4448 18.9023 29.4448C20.3197 29.4448 21.4392 29.9616 22.1478 30.8983L20.6097 32.279C20.1828 31.738 19.6755 31.4312 19.0232 31.4312C18.0085 31.4312 17.3239 32.1337 17.3239 33.248C17.3239 34.3543 18.0085 35.0648 19.0232 35.0648C19.6755 35.0648 20.1828 34.7499 20.6097 34.217L22.1478 35.5978C21.4311 36.5344 20.3197 37.0512 18.9023 37.0512C16.575 37.0432 14.8677 35.4767 14.8677 33.2399Z" fill="#332041"/>
<path d="M29.7037 34.7656C29.7037 36.0495 28.6487 36.8731 26.7562 36.8731H22.8906V29.6139H26.563C28.3507 29.6139 29.3896 30.3084 29.3896 31.5115C29.3896 32.2059 29.0514 32.7469 28.4555 33.0699C29.2447 33.3606 29.7037 33.9259 29.7037 34.7656ZM25.2825 32.3997H26.3133C26.724 32.3997 26.9092 32.2221 26.9092 31.8668C26.9092 31.5115 26.724 31.3177 26.3133 31.3177H25.2825V32.3997ZM27.2394 34.5799C27.2394 34.2085 27.0461 34.0228 26.6435 34.0228H25.2905V35.1613H26.6435C27.0461 35.1613 27.2394 34.9513 27.2394 34.5799Z" fill="#332041"/>
<path d="M36.5885 35.024V36.8731H30.5647V29.6139H36.4516V31.463H32.9646V32.3109H36.0248V34.0712H32.9646V35.024H36.5885Z" fill="#332041"/>
<path d="M44.216 29.6139V36.8731H41.8162V34.5476C41.333 34.6929 40.9062 34.7656 40.5035 34.7656C38.3694 34.7656 37.2419 33.7401 37.2419 31.8022V29.6139H39.6418V31.5357C39.6418 32.4159 40.0284 32.8358 40.8096 32.8358C41.2042 32.8358 41.5424 32.7873 41.8162 32.6662V29.6139H44.216Z" fill="#332041"/>
<path d="M50.5977 35.6054H47.8515L47.3684 36.8731H44.8879L48.0529 29.6139H50.4528L53.6177 36.8731H51.097L50.5977 35.6054ZM49.9293 33.8451L49.2287 32.0202L48.528 33.8451H49.9293Z" fill="#332041"/>
<path d="M21.0822 39.4316V46.1886H18.8528V41.1994H16.8014V46.1886H14.572V39.4316H21.0822Z" fill="#332041"/>
<path d="M27.0339 45.0071H24.4739L24.0247 46.1886H21.719L24.6604 39.4316H26.8898L29.8313 46.1886H27.4832L27.0339 45.0071ZM26.4067 43.3668L25.7539 41.6669L25.1012 43.3668H26.4067Z" fill="#332041"/>
<path d="M36.4699 46.1886L36.453 43.1119L34.9865 45.5851H33.9862L32.5197 43.2223V46.1971H30.4514V39.4401H32.3163L34.5118 43.0354L36.648 39.4401H38.5129L38.5298 46.1971H36.4699V46.1886Z" fill="#332041"/>
<path d="M45.6333 39.4316V46.1886H43.4039V44.5907H42.7936L41.7678 46.1886H39.3943L40.7252 44.2592C39.8606 43.8512 39.3689 43.0863 39.3689 42.0494C39.3689 40.4345 40.5726 39.4316 42.4884 39.4316H45.6333ZM41.6492 42.0069C41.6492 42.5764 41.9458 42.8653 42.5138 42.8653H43.3954V41.1824H42.5138C41.9374 41.1909 41.6492 41.4544 41.6492 42.0069Z" fill="#332041"/>
<path d="M52.5546 41.1994H50.5795V46.1886H48.3501V41.1994H46.375V39.4316H52.5546V41.1994Z" fill="#332041"/>
<path d="M53.3118 39.4316H55.5412V42.9418L57.8638 39.4316H59.9999V46.1886H57.7705V42.6868L55.4649 46.1886H53.3203V39.4316H53.3118Z" fill="#332041"/>
<path fill-rule="evenodd" clip-rule="evenodd" d="M13.3529 29.4489V43.7248H13.3496V46.1785H12.9046C5.79256 46.1785 0 45.15 0 43.8836C0 42.7214 4.87913 41.7737 11.1795 41.6258L13.3529 29.4489Z" fill="#E56216"/>
<path fill-rule="evenodd" clip-rule="evenodd" d="M13.2466 13.5067C13.2487 13.5044 13.2508 13.5022 13.2529 13.5L13.253 13.5136C13.9492 14.2572 18.4082 19.0502 21.7441 25.8241C22.1086 26.5721 22.325 27.1905 22.4606 27.8874H15.354C14.7452 26.8333 13.8177 26.1151 13.3586 25.8834C12.8957 26.1901 7.36518 29.9201 10.2105 38.1402C10.2105 38.1402 1.23412 33.2271 4.87914 25.8326C8.21535 19.0496 12.5466 14.2562 13.2405 13.5133L13.2403 13.5C13.2424 13.5022 13.2445 13.5044 13.2466 13.5067Z" fill="#E56216"/>
</svg>
