<svg width="70" height="63" viewBox="0 0 70 63" fill="none" xmlns="http://www.w3.org/2000/svg">
<path d="M48.433 6.79994C49.2533 7.87476 49.9477 9.04245 50.5022 10.2796L34.7724 22.031L28.1985 17.8546V12.8302L34.7724 17.0066L48.433 6.79994Z" fill="#21A038"/>
<path d="M21.4894 17.5001C21.4894 17.2746 21.4948 17.0507 21.5057 16.828L17.5217 16.6301C17.5081 16.9187 17.5 17.2101 17.5 17.5041C17.4983 19.8017 17.9442 22.077 18.8122 24.1994C19.6802 26.3219 20.9531 28.2498 22.5579 29.8725L25.3839 27.01C24.1485 25.763 23.1685 24.2809 22.5002 22.6489C21.8318 21.0169 21.4883 19.267 21.4894 17.5001Z" fill="url(#paint0_linear_543_1935)"/>
<path d="M34.7688 4.04206C34.9912 4.04206 35.2122 4.05031 35.4318 4.0613L35.6312 0.0223351C35.3456 0.00859245 35.0581 0.00172196 34.7688 0.00172196C32.5007 -0.0010812 30.2544 0.45019 28.1589 1.32962C26.0634 2.20906 24.16 3.49933 22.5579 5.12636L25.3838 7.99033C26.6142 6.73793 28.0768 5.74437 29.6874 5.06678C31.2981 4.3892 33.0249 4.04095 34.7688 4.04206Z" fill="url(#paint1_linear_543_1935)"/>
<path d="M34.7688 30.9583C34.5464 30.9583 34.3253 30.9583 34.1044 30.9404L33.905 34.978C34.1916 34.9927 34.4795 35.0001 34.7688 35.0001C37.036 35.0024 39.2811 34.5509 41.3755 33.6712C43.4699 32.7915 45.3721 31.501 46.973 29.874L44.1525 27.0115C42.9218 28.2632 41.4594 29.2562 39.8491 29.9335C38.2388 30.6109 36.5123 30.9592 34.7688 30.9583Z" fill="url(#paint2_linear_543_1935)"/>
<path d="M42.2541 6.39036L45.6116 3.88232C42.5428 1.36393 38.7122 -0.00699079 34.7634 2.68084e-05V4.04174C37.4374 4.03838 40.0492 4.85732 42.2541 6.39036Z" fill="url(#paint3_linear_543_1935)"/>
<path d="M52.0364 17.4999C52.0386 16.4485 51.9478 15.3989 51.7652 14.3638L48.0484 17.1398C48.0484 17.2594 48.0484 17.379 48.0484 17.4999C48.0493 19.3803 47.6604 21.2399 46.9069 22.9582C46.1532 24.6764 45.0517 26.215 43.6738 27.4743L46.3547 30.4771C48.1461 28.8381 49.5776 26.836 50.5563 24.6005C51.5352 22.3648 52.0394 19.9457 52.0364 17.4999Z" fill="#21A038"/>
<path d="M34.769 30.9581C32.9134 30.9588 31.0784 30.5644 29.3827 29.8008C27.6871 29.0371 26.1686 27.9209 24.9256 26.5247L21.9641 29.2403C23.5811 31.056 25.5566 32.507 27.7625 33.4992C29.9685 34.4914 32.3555 35.0027 34.769 34.9998V30.9581Z" fill="url(#paint4_linear_543_1935)"/>
<path d="M25.8639 7.5256L23.1844 4.52283C21.3926 6.16147 19.9605 8.16351 18.9813 10.3991C18.002 12.6347 17.4973 15.054 17.5 17.5H21.4894C21.4886 15.6197 21.8776 13.7601 22.6312 12.0418C23.3847 10.3236 24.4861 8.78494 25.8639 7.5256Z" fill="url(#paint5_linear_543_1935)"/>
<path d="M47.5249 47.4331L51.7326 44.327H37.6504V62.9918H51.7326V59.8857H41.6686V55.1047H50.2536V51.9986H41.6686V47.4331H47.5249Z" fill="#21A038"/>
<path d="M28.1751 51.5982H23.2861V47.4319H31.0888L35.2939 44.3164H19.2703V62.9812H27.658C32.3605 62.9812 35.0594 60.8456 35.0594 57.1212C35.0594 53.5581 32.6149 51.5982 28.1751 51.5982ZM27.4771 59.8742H23.2861V54.7024H27.4771C30.0206 54.7024 31.2131 55.5691 31.2131 57.2883C31.2131 59.0075 29.9442 59.8742 27.4771 59.8742Z" fill="#21A038"/>
<path d="M62.0841 44.3243H54.4187V62.989H58.4364V57.7017H62.0841C66.9747 57.7017 70 55.1231 70 51.003C70 46.883 66.9747 44.3243 62.0841 44.3243ZM61.9993 54.5932H58.4364V47.4328H61.9993C64.5718 47.4328 65.9915 48.705 65.9915 51.0144C65.9915 53.3238 64.5718 54.5932 61.9993 54.5932Z" fill="#21A038"/>
<path d="M13.2408 58.5843C12.2029 59.1475 11.0401 59.4391 9.85995 59.4322C6.32761 59.4322 3.7651 56.9054 3.7651 53.426C3.7651 49.9465 6.32761 47.4142 9.85995 47.4142C11.1338 47.3925 12.3812 47.7796 13.4199 48.5188L16.2304 46.4449L16.0403 46.3096C14.4009 44.8654 12.2103 44.1004 9.70295 44.1004C6.98334 44.1004 4.51733 45.0173 2.75663 46.6852C1.86635 47.544 1.16232 48.5774 0.688199 49.721C0.21417 50.8646 -0.0197453 52.0938 0.00130443 53.332C-0.0175583 54.5828 0.215266 55.8245 0.685832 56.9832C1.1564 58.1418 1.85505 59.1935 2.74014 60.0756C4.50904 61.8098 6.96958 62.7652 9.66987 62.7652C12.4914 62.7652 14.9574 61.7793 16.6272 59.9845L14.1115 58.1067L13.2408 58.5843Z" fill="#21A038"/>
<defs>
<linearGradient id="paint0_linear_543_1935" x1="23.3648" y1="29.3682" x2="18.9014" y2="16.6368" gradientUnits="userSpaceOnUse">
<stop offset="0.14" stop-color="#F1E813"/>
<stop offset="0.3" stop-color="#E6E418"/>
<stop offset="0.58" stop-color="#C9DA26"/>
<stop offset="0.89" stop-color="#A2CC39"/>
</linearGradient>
<linearGradient id="paint1_linear_543_1935" x1="23.6969" y1="5.84098" x2="34.961" y2="1.60538" gradientUnits="userSpaceOnUse">
<stop offset="0.06" stop-color="#0FA7DF"/>
<stop offset="0.54" stop-color="#0098F8"/>
<stop offset="0.92" stop-color="#0290EA"/>
</linearGradient>
<linearGradient id="paint2_linear_543_1935" x1="33.642" y1="32.5607" x2="46.3532" y2="29.7272" gradientUnits="userSpaceOnUse">
<stop offset="0.12" stop-color="#A2CC39"/>
<stop offset="0.28" stop-color="#86C239"/>
<stop offset="0.87" stop-color="#219F38"/>
</linearGradient>
<linearGradient id="paint3_linear_543_1935" x1="33.9336" y1="1.35368" x2="44.8121" y2="4.66616" gradientUnits="userSpaceOnUse">
<stop offset="0.06" stop-color="#0290EA"/>
<stop offset="0.79" stop-color="#0C89CA"/>
</linearGradient>
<linearGradient id="paint4_linear_543_1935" x1="22.9648" y1="28.7483" x2="34.8168" y2="33.119" gradientUnits="userSpaceOnUse">
<stop offset="0.13" stop-color="#F1E813"/>
<stop offset="0.3" stop-color="#EAE616"/>
<stop offset="0.53" stop-color="#D8DF1F"/>
<stop offset="0.8" stop-color="#BAD52D"/>
<stop offset="0.98" stop-color="#A2CC39"/>
</linearGradient>
<linearGradient id="paint5_linear_543_1935" x1="18.9862" y1="17.9892" x2="23.8398" y2="5.53103" gradientUnits="userSpaceOnUse">
<stop offset="0.07" stop-color="#A2CC39"/>
<stop offset="0.26" stop-color="#81C45E"/>
<stop offset="0.92" stop-color="#0FA7DF"/>
</linearGradient>
</defs>
</svg>
