<svg width="70" height="70" viewBox="0 0 70 70" fill="none" xmlns="http://www.w3.org/2000/svg">
<g clip-path="url(#clip0_538_4641)">
<path d="M12.8333 39.2571V39.4331L23.3333 33.8334L12.8333 39.2571Z" fill="#CAE2FF"/>
<path d="M23.3333 33.8334L32.6666 38.8116V38.6539L23.3333 33.8334Z" fill="#CAE2FF"/>
<path d="M32.6667 38.8116L36.4584 40.8333H36.8857L32.6667 38.6538V38.8116Z" fill="#CAE2FF"/>
<path d="M36.4582 40.8334L32.6666 38.8116L23.3333 33.8334L12.8333 39.4331L5.83325 43.1667V63H10.4999V46.6667H17.4999V63H40.8332V43.1667L36.4582 40.8334ZM20.9999 40.8334C20.9999 39.5448 22.0447 38.5 23.3333 38.5C24.6218 38.5 25.6666 39.5448 25.6666 40.8334C25.6666 42.1219 24.6218 43.1667 23.3333 43.1667C22.0447 43.1667 20.9999 42.1219 20.9999 40.8334ZM36.1666 56H22.1666V49H36.1666V56Z" fill="#CAE2FF"/>
<path d="M65.3333 64.1666H63V6.99996H31.5V4.66663H65.3333V64.1666Z" fill="#275BA8"/>
<path d="M70.0001 59.5H67.6667V2.33333H36.1667V0H70.0001V59.5Z" fill="#275BA8"/>
<path d="M26.3503 9.33337L11.6667 24.017V32.6667H14.0001V25.6667H28.0001V11.6667H58.3334V67.6667H14.0001V65.3334H11.6667V70H60.6667V9.33337H26.3503ZM15.6498 23.3334L25.6667 13.3164V23.3334H15.6498Z" fill="#275BA8"/>
<path d="M42.0001 64.1667V44.7765C42.9827 45.3103 44.1745 45.2847 45.1332 44.7093C46.0919 44.134 46.6753 43.0949 46.6667 41.9766C46.6593 40.8339 46.0441 39.7817 45.0523 39.2138L23.3334 27.8496L1.56321 39.2468C0.597062 39.8188 0.00290504 40.8573 5.67437e-05 41.9801V41.992C-0.00677919 43.1319 0.604467 44.1858 1.59739 44.7463C2.0816 45.0255 2.63018 45.173 3.18845 45.1747C3.70684 45.173 4.21555 45.0386 4.66672 44.7839V64.1667H42.0001ZM2.75551 42.7201C2.49119 42.5742 2.32883 42.2939 2.33339 41.992V41.9801C2.32826 41.7004 2.46555 41.4372 2.6974 41.28L23.3334 30.4837L43.9192 41.2555C44.1784 41.4104 44.3357 41.6901 44.3334 41.992C44.3379 42.2939 44.1756 42.5742 43.9113 42.7201C43.6287 42.8784 43.2807 42.8653 43.0118 42.6847L23.3334 32.5197L3.59918 42.7149C3.34055 42.8733 3.01584 42.875 2.75551 42.7201ZM7.00006 61.8333V43.5831L23.3334 35.147L39.6667 43.582V61.8333H18.6667V45.5H9.33339V61.8333H7.00006ZM11.6667 61.8333V47.8333H16.3334V61.8333H11.6667Z" fill="#275BA8"/>
<path d="M23.3335 44.3334C25.2664 44.3334 26.8335 42.7662 26.8335 40.8334C26.8335 38.9005 25.2664 37.3334 23.3335 37.3334C21.4006 37.3334 19.8335 38.9005 19.8335 40.8334C19.8335 42.7662 21.4006 44.3334 23.3335 44.3334ZM23.3335 39.6667C23.9778 39.6667 24.5002 40.1891 24.5002 40.8334C24.5002 41.4777 23.9778 42 23.3335 42C22.6892 42 22.1668 41.4777 22.1668 40.8334C22.1668 40.1891 22.6892 39.6667 23.3335 39.6667Z" fill="#275BA8"/>
<path d="M21 57.1667H37.3333V47.8334H21V57.1667ZM23.3333 50.1667H35V54.8334H23.3333V50.1667Z" fill="#275BA8"/>
<path d="M32.6667 18.6666H35.0001V21H32.6667V18.6666Z" fill="#275BA8"/>
<path d="M37.3335 18.6666H53.6668V21H37.3335V18.6666Z" fill="#275BA8"/>
<path d="M32.6667 23.3334H35.0001V25.6667H32.6667V23.3334Z" fill="#275BA8"/>
<path d="M37.3335 23.3334H53.6668V25.6667H37.3335V23.3334Z" fill="#275BA8"/>
<path d="M32.6667 30.3333H51.3334V39.6667H49.0001V42H53.6667V28H32.6667V30.3333Z" fill="#275BA8"/>
<path d="M49 44.3334H53.6667V46.6667H49V44.3334Z" fill="#275BA8"/>
</g>
<defs>
<clipPath id="clip0_538_4641">
<rect width="70" height="70" fill="white"/>
</clipPath>
</defs>
</svg>
