<svg width="70" height="70" viewBox="0 0 70 70" fill="none" xmlns="http://www.w3.org/2000/svg">
<g clip-path="url(#clip0_538_4675)">
<path d="M25.6667 1.16663V15.1666H11.6667V43.1666H58.3334V1.16663H25.6667ZM51.3334 31.5H18.6667V19.8333H51.3334V31.5Z" fill="#CAE2FF"/>
<path d="M11.6667 43.1666H1.16675V50.1666C1.16675 52.7438 3.25627 54.8333 5.83341 54.8333H64.1667C66.7439 54.8333 68.8334 52.7438 68.8334 50.1666V43.1666H11.6667ZM35.0001 51.3333C33.7115 51.3333 32.6667 50.2885 32.6667 49C32.6667 47.7114 33.7115 46.6666 35.0001 46.6666C36.2887 46.6666 37.3334 47.7114 37.3334 49C37.3334 50.2885 36.2887 51.3333 35.0001 51.3333Z" fill="#CAE2FF"/>
<path d="M26.8333 54.8334H43.1666V61.8334H26.8333V54.8334Z" fill="#CAE2FF"/>
<path d="M18.6666 61.8334H51.3333C52.6218 61.8334 53.6666 62.8781 53.6666 64.1667V70H16.3333V64.1667C16.3333 62.8781 17.378 61.8334 18.6666 61.8334Z" fill="#CAE2FF"/>
<path d="M29.1667 9.33337H31.5001V11.6667H29.1667V9.33337Z" fill="#275BA8"/>
<path d="M33.8333 9.33337H52.4999V11.6667H33.8333V9.33337Z" fill="#275BA8"/>
<path d="M29.1667 14H31.5001V16.3333H29.1667V14Z" fill="#275BA8"/>
<path d="M33.8333 14H52.4999V16.3333H33.8333V14Z" fill="#275BA8"/>
<path d="M17.5 32.6666H52.5V18.6666H17.5V32.6666ZM19.8333 21H50.1667V30.3333H19.8333V21Z" fill="#275BA8"/>
<path d="M64.1667 7H61.8333V9.33333H64.1667C66.0995 9.33333 67.6667 10.9005 67.6667 12.8333V42H59.5V0H25.1836L10.5 14.6836V42H2.33333V12.8333C2.33333 10.9005 3.90047 9.33333 5.83333 9.33333H14V7H5.83333C2.61304 7.00399 0.00398764 9.61304 0 12.8333V50.1667C0.00398764 53.387 2.61304 55.996 5.83333 56H25.6667V60.6667H18.6667C16.7338 60.6667 15.1667 62.2338 15.1667 64.1667V70H54.8333V64.1667C54.8333 62.2338 53.2662 60.6667 51.3333 60.6667H49V63H51.3333C51.9776 63 52.5 63.5224 52.5 64.1667V67.6667H17.5V64.1667C17.5 63.5224 18.0224 63 18.6667 63H46.6667V60.6667H44.3333V56H64.1667C67.387 55.996 69.996 53.387 70 50.1667V12.8333C69.996 9.61304 67.387 7.00399 64.1667 7ZM24.5 3.98307V14H14.4831L24.5 3.98307ZM12.8333 16.3333H26.8333V2.33333H57.1667V42H12.8333V16.3333ZM42 60.6667H28V56H42V60.6667ZM64.1667 53.6667H5.83333C3.90047 53.6667 2.33333 52.0995 2.33333 50.1667V44.3333H67.6667V50.1667C67.6667 52.0995 66.0995 53.6667 64.1667 53.6667Z" fill="#275BA8"/>
<path d="M35 45.5C33.0671 45.5 31.5 47.0671 31.5 49C31.5 50.9329 33.0671 52.5 35 52.5C36.9329 52.5 38.5 50.9329 38.5 49C38.5 47.0671 36.9329 45.5 35 45.5ZM35 50.1667C34.3557 50.1667 33.8333 49.6443 33.8333 49C33.8333 48.3557 34.3557 47.8333 35 47.8333C35.6443 47.8333 36.1667 48.3557 36.1667 49C36.1667 49.6443 35.6443 50.1667 35 50.1667Z" fill="#275BA8"/>
<path d="M17.5 35H19.8333V37.3333H17.5V35Z" fill="#275BA8"/>
<path d="M22.1667 35H52.5001V37.3333H22.1667V35Z" fill="#275BA8"/>
</g>
<defs>
<clipPath id="clip0_538_4675">
<rect width="70" height="70" fill="white"/>
</clipPath>
</defs>
</svg>
