<svg width="70" height="70" viewBox="0 0 70 70" fill="none" xmlns="http://www.w3.org/2000/svg">
<g clip-path="url(#clip0_538_4084)">
<path d="M46.6667 19.8334H60.6667L46.6667 5.83337V19.8334Z" fill="#CAE2FF"/>
<path d="M37.3332 53.6666C37.3332 59.4658 32.6324 64.1666 26.8333 64.1666C21.0341 64.1666 16.3333 59.4658 16.3333 53.6666C16.3333 47.8675 21.0341 43.1666 26.8333 43.1666C32.6324 43.1666 37.3332 47.8675 37.3332 53.6666Z" fill="#CAE2FF"/>
<path d="M3.50008 38.5H29.1667C30.4553 38.5 31.5001 37.4552 31.5001 36.1666V3.49996C31.5001 2.21139 30.4553 1.16663 29.1667 1.16663H3.50008C2.21151 1.16663 1.16675 2.21139 1.16675 3.49996V36.1666C1.16675 37.4552 2.21151 38.5 3.50008 38.5ZM10.5001 33.8333C10.5001 34.4776 9.9777 35 9.33342 35H7.00008C6.35579 35 5.83342 34.4776 5.83342 33.8333V31.5C5.83342 30.8557 6.35579 30.3333 7.00008 30.3333H9.33342C9.9777 30.3333 10.5001 30.8557 10.5001 31.5V33.8333ZM10.5001 25.6666C10.5001 26.3109 9.9777 26.8333 9.33342 26.8333H7.00008C6.35579 26.8333 5.83342 26.3109 5.83342 25.6666V23.3333C5.83342 22.689 6.35579 22.1666 7.00008 22.1666H9.33342C9.9777 22.1666 10.5001 22.689 10.5001 23.3333V25.6666ZM10.5001 17.5C10.5001 18.1442 9.9777 18.6666 9.33342 18.6666H7.00008C6.35579 18.6666 5.83342 18.1442 5.83342 17.5V15.1666C5.83342 14.5223 6.35579 14 7.00008 14H9.33342C9.9777 14 10.5001 14.5223 10.5001 15.1666V17.5ZM18.6667 33.8333C18.6667 34.4776 18.1444 35 17.5001 35H15.1667C14.5225 35 14.0001 34.4776 14.0001 33.8333V31.5C14.0001 30.8557 14.5225 30.3333 15.1667 30.3333H17.5001C18.1444 30.3333 18.6667 30.8557 18.6667 31.5V33.8333ZM18.6667 25.6666C18.6667 26.3109 18.1444 26.8333 17.5001 26.8333H15.1667C14.5225 26.8333 14.0001 26.3109 14.0001 25.6666V23.3333C14.0001 22.689 14.5225 22.1666 15.1667 22.1666H17.5001C18.1444 22.1666 18.6667 22.689 18.6667 23.3333V25.6666ZM18.6667 17.5C18.6667 18.1442 18.1444 18.6666 17.5001 18.6666H15.1667C14.5225 18.6666 14.0001 18.1442 14.0001 17.5V15.1666C14.0001 14.5223 14.5225 14 15.1667 14H17.5001C18.1444 14 18.6667 14.5223 18.6667 15.1666V17.5ZM26.8334 33.8333C26.8334 34.4776 26.311 35 25.6667 35H23.3334C22.6891 35 22.1667 34.4776 22.1667 33.8333V31.5C22.1667 30.8557 22.6891 30.3333 23.3334 30.3333H25.6667C26.311 30.3333 26.8334 30.8557 26.8334 31.5V33.8333ZM26.8334 25.6666C26.8334 26.3109 26.311 26.8333 25.6667 26.8333H23.3334C22.6891 26.8333 22.1667 26.3109 22.1667 25.6666V23.3333C22.1667 22.689 22.6891 22.1666 23.3334 22.1666H25.6667C26.311 22.1666 26.8334 22.689 26.8334 23.3333V25.6666ZM26.8334 17.5C26.8334 18.1442 26.311 18.6666 25.6667 18.6666H23.3334C22.6891 18.6666 22.1667 18.1442 22.1667 17.5V15.1666C22.1667 14.5223 22.6891 14 23.3334 14H25.6667C26.311 14 26.8334 14.5223 26.8334 15.1666V17.5ZM4.66675 4.66663H28.0001V10.5H4.66675V4.66663Z" fill="#CAE2FF"/>
<path d="M68.1156 41.3512C69.027 40.4397 69.027 38.962 68.1156 38.0511C67.2047 37.1397 65.727 37.1397 64.8155 38.0511L63.1658 39.7003L66.4664 43.0009L68.1156 41.3512Z" fill="#CAE2FF"/>
<path d="M48.117 61.3503L66.4664 43.0009L63.1658 39.7003L44.8164 58.0497L42 64.1667L48.117 61.3503ZM64.0009 45.4653L60.7014 42.1658L64.0009 45.4653Z" fill="#CAE2FF"/>
<path d="M26.8334 42C20.39 42 15.1667 47.2232 15.1667 53.6667C15.1667 60.1101 20.39 65.3333 26.8334 65.3333C33.2769 65.3333 38.5001 60.1101 38.5001 53.6667C38.4933 47.2261 33.274 42.0068 26.8334 42ZM26.8334 63C21.6786 63 17.5001 58.8215 17.5001 53.6667C17.5001 48.5118 21.6786 44.3333 26.8334 44.3333C31.9883 44.3333 36.1668 48.5118 36.1668 53.6667C36.1611 58.8187 31.9854 62.9943 26.8334 63Z" fill="#2054A2"/>
<path d="M59.5 67.6667H10.5V39.6667H29.1667C31.0995 39.6667 32.6667 38.0995 32.6667 36.1667V7H45.5V21H59.5V37.3333H61.8333V19.3503L47.1497 4.66667H32.6667V3.5C32.6667 1.56714 31.0995 0 29.1667 0H3.5C1.56714 0 0 1.56714 0 3.5V36.1667C0 38.0995 1.56714 39.6667 3.5 39.6667H8.16667V70H61.8333V53.6667H59.5V67.6667ZM47.8333 8.64974L57.8503 18.6667H47.8333V8.64974ZM2.33333 36.1667V3.5C2.33333 2.85571 2.85571 2.33333 3.5 2.33333H29.1667C29.811 2.33333 30.3333 2.85571 30.3333 3.5V36.1667C30.3333 36.811 29.811 37.3333 29.1667 37.3333H3.5C2.85571 37.3333 2.33333 36.811 2.33333 36.1667Z" fill="#2054A2"/>
<path d="M37.3333 29.1666H39.6666V31.5H37.3333V29.1666Z" fill="#2054A2"/>
<path d="M42 29.1666H56V31.5H42V29.1666Z" fill="#2054A2"/>
<path d="M37.3333 24.5H39.6666V26.8333H37.3333V24.5Z" fill="#2054A2"/>
<path d="M42 24.5H56V26.8333H42V24.5Z" fill="#2054A2"/>
<path d="M37.3333 33.8333H39.6666V36.1666H37.3333V33.8333Z" fill="#2054A2"/>
<path d="M42 33.8333H56V36.1666H42V33.8333Z" fill="#2054A2"/>
<path d="M37.3333 38.5H39.6666V40.8333H37.3333V38.5Z" fill="#2054A2"/>
<path d="M42 38.5H56V40.8333H42V38.5Z" fill="#2054A2"/>
<path d="M29.1667 3.5H3.5V11.6667H29.1667V3.5ZM26.8333 9.33333H5.83333V5.83333H26.8333V9.33333Z" fill="#2054A2"/>
<path d="M9.33341 12.8334H7.00008C5.71151 12.8334 4.66675 13.8781 4.66675 15.1667V17.5C4.66675 18.7886 5.71151 19.8334 7.00008 19.8334H9.33341C10.622 19.8334 11.6667 18.7886 11.6667 17.5V15.1667C11.6667 13.8781 10.622 12.8334 9.33341 12.8334ZM7.00008 17.5V15.1667H9.33341V17.5H7.00008Z" fill="#2054A2"/>
<path d="M17.4999 12.8334H15.1666C13.878 12.8334 12.8333 13.8781 12.8333 15.1667V17.5C12.8333 18.7886 13.878 19.8334 15.1666 19.8334H17.4999C18.7885 19.8334 19.8333 18.7886 19.8333 17.5V15.1667C19.8333 13.8781 18.7885 12.8334 17.4999 12.8334ZM15.1666 17.5V15.1667H17.4999V17.5H15.1666Z" fill="#2054A2"/>
<path d="M25.6667 12.8334H23.3333C22.0448 12.8334 21 13.8781 21 15.1667V17.5C21 18.7886 22.0448 19.8334 23.3333 19.8334H25.6667C26.9552 19.8334 28 18.7886 28 17.5V15.1667C28 13.8781 26.9552 12.8334 25.6667 12.8334ZM23.3333 17.5V15.1667H25.6667V17.5H23.3333Z" fill="#2054A2"/>
<path d="M9.33341 21H7.00008C5.71151 21 4.66675 22.0448 4.66675 23.3333V25.6667C4.66675 26.9552 5.71151 28 7.00008 28H9.33341C10.622 28 11.6667 26.9552 11.6667 25.6667V23.3333C11.6667 22.0448 10.622 21 9.33341 21ZM7.00008 25.6667V23.3333H9.33341V25.6667H7.00008Z" fill="#2054A2"/>
<path d="M17.4999 21H15.1666C13.878 21 12.8333 22.0448 12.8333 23.3333V25.6667C12.8333 26.9552 13.878 28 15.1666 28H17.4999C18.7885 28 19.8333 26.9552 19.8333 25.6667V23.3333C19.8333 22.0448 18.7885 21 17.4999 21ZM15.1666 25.6667V23.3333H17.4999V25.6667H15.1666Z" fill="#2054A2"/>
<path d="M25.6667 21H23.3333C22.0448 21 21 22.0448 21 23.3333V25.6667C21 26.9552 22.0448 28 23.3333 28H25.6667C26.9552 28 28 26.9552 28 25.6667V23.3333C28 22.0448 26.9552 21 25.6667 21ZM23.3333 25.6667V23.3333H25.6667V25.6667H23.3333Z" fill="#2054A2"/>
<path d="M9.33341 29.1666H7.00008C5.71151 29.1666 4.66675 30.2114 4.66675 31.5V33.8333C4.66675 35.1219 5.71151 36.1666 7.00008 36.1666H9.33341C10.622 36.1666 11.6667 35.1219 11.6667 33.8333V31.5C11.6667 30.2114 10.622 29.1666 9.33341 29.1666ZM7.00008 33.8333V31.5H9.33341V33.8333H7.00008Z" fill="#2054A2"/>
<path d="M17.4999 29.1666H15.1666C13.878 29.1666 12.8333 30.2114 12.8333 31.5V33.8333C12.8333 35.1219 13.878 36.1666 15.1666 36.1666H17.4999C18.7885 36.1666 19.8333 35.1219 19.8333 33.8333V31.5C19.8333 30.2114 18.7885 29.1666 17.4999 29.1666ZM15.1666 33.8333V31.5H17.4999V33.8333H15.1666Z" fill="#2054A2"/>
<path d="M25.6667 29.1666H23.3333C22.0448 29.1666 21 30.2114 21 31.5V33.8333C21 35.1219 22.0448 36.1666 23.3333 36.1666H25.6667C26.9552 36.1666 28 35.1219 28 33.8333V31.5C28 30.2114 26.9552 29.1666 25.6667 29.1666ZM23.3333 33.8333V31.5H25.6667V33.8333H23.3333Z" fill="#2054A2"/>
<path d="M68.9403 37.2263C67.5555 35.9041 65.3765 35.9041 63.9917 37.2263L43.9914 57.2259C43.8946 57.3239 43.8154 57.4378 43.7578 57.5632L40.9414 63.679C40.7381 64.1222 40.8321 64.6458 41.1773 64.9904C41.5219 65.3356 42.0454 65.4296 42.4886 65.2262L48.6045 62.4098C48.7299 62.3523 48.8438 62.2737 48.9418 62.1763L68.9403 42.176C70.3075 40.8094 70.3075 38.5929 68.9403 37.2263ZM47.4379 60.3773L44.3811 61.7855L45.7893 58.7287L60.7013 43.8155L62.351 45.4653L47.4379 60.3773ZM64.0042 43.8104L62.3544 42.1612L63.1713 41.3443L64.8211 42.9941L64.0042 43.8104ZM67.2946 40.5206L66.4697 41.3455L64.8199 39.6957L65.646 38.8709C66.1068 38.43 66.8331 38.43 67.2946 38.8709C67.7497 39.3266 67.7497 40.0649 67.2946 40.5206Z" fill="#2054A2"/>
<path fill-rule="evenodd" clip-rule="evenodd" d="M25.8164 57.5343H28.2291V55.6985H25.8164V55.1243H27.7967C29.1168 55.1243 30.1462 54.8095 30.8847 54.1799C31.6282 53.5504 32 52.6916 32 51.6037C32 50.8986 31.8255 50.2715 31.4765 49.7225C31.1325 49.1685 30.6469 48.7429 30.0197 48.4457C29.3925 48.1486 28.6641 48 27.8346 48H23.5402V53.2885H22V55.1243H23.5402V55.6985H22V57.5343H23.5402V59H25.8164V57.5343ZM27.7815 53.2885H25.8164V49.8434H27.8649C28.4365 49.8484 28.8842 50.0147 29.2079 50.342C29.5316 50.6644 29.6935 51.09 29.6935 51.6188C29.6935 52.7319 29.0561 53.2885 27.7815 53.2885Z" fill="#275BA8"/>
</g>
<defs>
<clipPath id="clip0_538_4084">
<rect width="70" height="70" fill="white"/>
</clipPath>
</defs>
</svg>
