<svg width="70" height="70" viewBox="0 0 70 70" fill="none" xmlns="http://www.w3.org/2000/svg">
<g clip-path="url(#clip0_538_4192)">
<path d="M68.8334 22.1667V16.3334C68.8351 18.3357 68.4386 20.3187 67.6667 22.1667H68.8334Z" fill="#CAE2FF"/>
<path d="M14.0001 16.3333C14.0001 16.9776 13.4777 17.5 12.8334 17.5C12.1891 17.5 11.6667 16.9776 11.6667 16.3333C11.6667 15.689 12.1891 15.1666 12.8334 15.1666C13.4777 15.1666 14.0001 15.689 14.0001 16.3333Z" fill="#CAE2FF"/>
<path d="M38.5001 16.3333C38.5001 18.3357 38.8966 20.3181 39.6667 22.1667H1.16675V12.8333C1.17074 11.5465 2.21322 10.504 3.50008 10.5H39.6667C38.8966 12.3486 38.5001 14.331 38.5001 16.3333Z" fill="#CAE2FF"/>
<path d="M19.8333 16.3333C19.8333 16.9776 19.311 17.5 18.6667 17.5C18.0224 17.5 17.5 16.9776 17.5 16.3333C17.5 15.689 18.0224 15.1666 18.6667 15.1666C19.311 15.1666 19.8333 15.689 19.8333 16.3333Z" fill="#CAE2FF"/>
<path d="M8.16659 16.3333C8.16659 16.9776 7.64421 17.5 6.99992 17.5C6.35563 17.5 5.83325 16.9776 5.83325 16.3333C5.83325 15.689 6.35563 15.1666 6.99992 15.1666C7.64421 15.1666 8.16659 15.689 8.16659 16.3333Z" fill="#CAE2FF"/>
<path d="M38.5001 45.5C38.5001 44.2114 37.4553 43.1666 36.1667 43.1666H3.50008C2.21151 43.1666 1.16675 44.2114 1.16675 45.5V47.8333H38.5001V45.5Z" fill="#CAE2FF"/>
<path d="M1.16675 52.5V66.5C1.16675 67.7886 2.21151 68.8333 3.50008 68.8333H36.1667C37.4553 68.8333 38.5001 67.7886 38.5001 66.5V52.5H1.16675ZM29.1667 65.3333C27.2339 65.3333 25.6667 63.7662 25.6667 61.8333C25.6667 63.7662 24.0996 65.3333 22.1667 65.3333C20.2339 65.3333 18.6667 63.7662 18.6667 61.8333C18.6667 59.9005 20.2339 58.3333 22.1667 58.3333C24.0996 58.3333 25.6667 59.9005 25.6667 61.8333C25.6667 59.9005 27.2339 58.3333 29.1667 58.3333C31.0996 58.3333 32.6667 59.9005 32.6667 61.8333C32.6667 63.7662 31.0996 65.3333 29.1667 65.3333Z" fill="#CAE2FF"/>
<path d="M25.6667 61.8334C25.6667 63.7662 24.0996 65.3334 22.1667 65.3334C20.2339 65.3334 18.6667 63.7662 18.6667 61.8334C18.6667 59.9005 20.2339 58.3334 22.1667 58.3334C24.0996 58.3334 25.6667 59.9005 25.6667 61.8334Z" fill="#CAE2FF"/>
<path d="M32.6667 61.8334C32.6667 63.7662 31.0996 65.3334 29.1667 65.3334C27.2339 65.3334 25.6667 63.7662 25.6667 61.8334C25.6667 59.9005 27.2339 58.3334 29.1667 58.3334C31.0996 58.3334 32.6667 59.9005 32.6667 61.8334Z" fill="#CAE2FF"/>
<path d="M53.6667 1.16663C45.2904 1.16663 38.5 7.95699 38.5 16.3333C38.5 24.7096 45.2904 31.5 53.6667 31.5C62.043 31.5 68.8333 24.7096 68.8333 16.3333C68.8333 7.95699 62.043 1.16663 53.6667 1.16663Z" fill="#CAE2FF"/>
<path d="M46.6666 40.8333C46.6666 41.4776 46.1442 42 45.4999 42C44.8556 42 44.3333 41.4776 44.3333 40.8333C44.3333 40.189 44.8556 39.6666 45.4999 39.6666C46.1442 39.6666 46.6666 40.189 46.6666 40.8333Z" fill="#CAE2FF"/>
<path d="M46.6666 47.8333C46.6666 48.4776 46.1442 49 45.4999 49C44.8556 49 44.3333 48.4776 44.3333 47.8333C44.3333 47.189 44.8556 46.6666 45.4999 46.6666C46.1442 46.6666 46.6666 47.189 46.6666 47.8333Z" fill="#CAE2FF"/>
<path d="M46.6666 54.8333C46.6666 55.4776 46.1442 56 45.4999 56C44.8556 56 44.3333 55.4776 44.3333 54.8333C44.3333 54.189 44.8556 53.6666 45.4999 53.6666C46.1442 53.6666 46.6666 54.189 46.6666 54.8333Z" fill="#CAE2FF"/>
<path d="M9.33342 16.3333C9.33342 17.6219 8.28866 18.6667 7.00008 18.6667C5.71151 18.6667 4.66675 17.6219 4.66675 16.3333C4.66675 15.0448 5.71151 14 7.00008 14C8.28866 14 9.33342 15.0448 9.33342 16.3333Z" fill="#2054A2"/>
<path d="M15.1667 16.3333C15.1667 17.6219 14.1219 18.6667 12.8333 18.6667C11.5448 18.6667 10.5 17.6219 10.5 16.3333C10.5 15.0448 11.5448 14 12.8333 14C14.1219 14 15.1667 15.0448 15.1667 16.3333Z" fill="#2054A2"/>
<path d="M20.9999 16.3333C20.9999 17.6219 19.9552 18.6667 18.6666 18.6667C17.378 18.6667 16.3333 17.6219 16.3333 16.3333C16.3333 15.0448 17.378 14 18.6666 14C19.9552 14 20.9999 15.0448 20.9999 16.3333Z" fill="#2054A2"/>
<path d="M36.1667 42H3.5C1.56714 42 0 43.5671 0 45.5V66.5C0 68.4329 1.56714 70 3.5 70H36.1667C38.0995 70 39.6667 68.4329 39.6667 66.5V45.5C39.6667 43.5671 38.0995 42 36.1667 42ZM2.33333 49H37.3333V51.3333H2.33333V49ZM37.3333 66.5C37.3333 67.1443 36.811 67.6667 36.1667 67.6667H3.5C2.85571 67.6667 2.33333 67.1443 2.33333 66.5V53.6667H37.3333V66.5ZM2.33333 46.6667V45.5C2.33333 44.8557 2.85571 44.3333 3.5 44.3333H36.1667C36.811 44.3333 37.3333 44.8557 37.3333 45.5V46.6667H2.33333Z" fill="#2054A2"/>
<path d="M22.1668 66.5C23.5123 66.4955 24.7889 65.9076 25.6668 64.8879C26.9422 66.361 28.9987 66.8868 30.8251 66.2061C32.6508 65.5254 33.8619 63.7822 33.8619 61.8334C33.8619 59.8846 32.6508 58.1414 30.8251 57.4607C28.9987 56.7799 26.9422 57.3057 25.6668 58.7789C24.254 57.161 21.9178 56.7195 20.0117 57.7102C18.1057 58.7002 17.1241 60.8655 17.6357 62.9516C18.1472 65.0377 20.0186 66.5035 22.1668 66.5ZM29.1668 59.5001C30.4554 59.5001 31.5001 60.5448 31.5001 61.8334C31.5001 63.122 30.4554 64.1667 29.1668 64.1667C27.8782 64.1667 26.8334 63.122 26.8334 61.8334C26.8334 60.5448 27.8782 59.5001 29.1668 59.5001ZM22.1668 59.5001C23.4553 59.5001 24.5001 60.5448 24.5001 61.8334C24.5001 63.122 23.4553 64.1667 22.1668 64.1667C20.8782 64.1667 19.8334 63.122 19.8334 61.8334C19.8334 60.5448 20.8782 59.5001 22.1668 59.5001Z" fill="#2054A2"/>
<path d="M4.66675 61.8334H14.0001V64.1667H4.66675V61.8334Z" fill="#2054A2"/>
<path d="M53.6667 0C47.3656 0.00854493 41.632 3.64071 38.9318 9.33333H3.5C1.56714 9.33333 0 10.9005 0 12.8333V40.8333H2.33333V23.3333H38.9318C41.505 28.7787 46.8717 32.3608 52.8879 32.6479C58.9036 32.9344 64.5871 29.8793 67.6667 24.7028V61.8333C67.6667 62.4776 67.1443 63 66.5 63H42V65.3333H66.5C68.4329 65.3333 70 63.7662 70 61.8333V16.3333C69.9903 7.31673 62.6833 0.00968424 53.6667 0ZM2.33333 21V12.8333C2.33333 12.189 2.85571 11.6667 3.5 11.6667H38.0215C37.1038 14.7104 37.1038 17.9563 38.0215 21H2.33333ZM53.6667 30.3333C45.9347 30.3333 39.6667 24.0653 39.6667 16.3333C39.6667 8.60132 45.9347 2.33333 53.6667 2.33333C61.3987 2.33333 67.6667 8.60132 67.6667 16.3333C67.6581 24.0619 61.3953 30.3248 53.6667 30.3333Z" fill="#2054A2"/>
<path d="M62.5402 9.30884L50.1666 21.6836L44.3914 15.9089L42.7422 17.5581L50.1666 24.9831L64.1911 10.9597L62.5402 9.30884Z" fill="#2054A2"/>
<path d="M50.1667 39.6666H64.1668V42H50.1667V39.6666Z" fill="#2054A2"/>
<path d="M47.8334 40.8333C47.8334 42.1219 46.7887 43.1667 45.5001 43.1667C44.2115 43.1667 43.1667 42.1219 43.1667 40.8333C43.1667 39.5448 44.2115 38.5 45.5001 38.5C46.7887 38.5 47.8334 39.5448 47.8334 40.8333Z" fill="#2054A2"/>
<path d="M50.1667 46.6666H64.1668V49H50.1667V46.6666Z" fill="#2054A2"/>
<path d="M47.8334 47.8333C47.8334 49.1219 46.7887 50.1667 45.5001 50.1667C44.2115 50.1667 43.1667 49.1219 43.1667 47.8333C43.1667 46.5448 44.2115 45.5 45.5001 45.5C46.7887 45.5 47.8334 46.5448 47.8334 47.8333Z" fill="#2054A2"/>
<path d="M50.1667 53.6666H64.1668V56H50.1667V53.6666Z" fill="#2054A2"/>
<path d="M47.8334 54.8333C47.8334 56.1219 46.7887 57.1667 45.5001 57.1667C44.2115 57.1667 43.1667 56.1219 43.1667 54.8333C43.1667 53.5448 44.2115 52.5 45.5001 52.5C46.7887 52.5 47.8334 53.5448 47.8334 54.8333Z" fill="#2054A2"/>
<path d="M8.16675 29.1666H10.5001V31.5H8.16675V29.1666Z" fill="#2054A2"/>
<path d="M12.8333 29.1666H33.8332V31.5H12.8333V29.1666Z" fill="#2054A2"/>
<path d="M8.16675 33.8334H33.8334V36.1667H8.16675V33.8334Z" fill="#2054A2"/>
</g>
<defs>
<clipPath id="clip0_538_4192">
<rect width="70" height="70" fill="white"/>
</clipPath>
</defs>
</svg>
