<svg width="70" height="70" viewBox="0 0 70 70" fill="none" xmlns="http://www.w3.org/2000/svg">
<g clip-path="url(#clip0_538_4488)">
<path d="M19.8333 1.16663V68.8333H29.1666V52.5H40.8332V68.8333H50.1666V1.16663H19.8333ZM38.4999 8.16663H43.1666V12.8333H38.4999V8.16663ZM38.4999 17.5H43.1666V22.1666H38.4999V17.5ZM38.4999 26.8333H43.1666V31.5H38.4999V26.8333ZM38.4999 36.1666H43.1666V40.8333H38.4999V36.1666ZM26.8333 8.16663H31.4999V12.8333H26.8333V8.16663ZM26.8333 17.5H31.4999V22.1666H26.8333V17.5ZM26.8333 26.8333H31.4999V31.5H26.8333V26.8333ZM26.8333 36.1666H31.4999V40.8333H26.8333V36.1666Z" fill="#CAE2FF"/>
<path d="M50.1667 19.8334V68.8334H55.4635C55.0402 67.7151 54.8266 66.5291 54.8334 65.3334C54.8334 61.4716 56.9218 58.3334 59.5001 58.3334C62.0784 58.3334 64.1668 61.4716 64.1668 65.3334C64.1736 66.5291 63.96 67.7151 63.5367 68.8334H68.8334V19.8334H50.1667ZM61.8334 50.1667H57.1667V45.5H61.8334V50.1667ZM61.8334 40.8334H57.1667V36.1667H61.8334V40.8334ZM61.8334 31.5H57.1667V26.8334H61.8334V31.5Z" fill="#CAE2FF"/>
<path d="M1.16675 19.8334V67.6667H19.8334V19.8334H1.16675ZM8.16675 61.8334C5.5896 61.8334 3.50008 58.1773 3.50008 53.6667C3.50008 49.1561 5.5896 45.5 8.16675 45.5C10.7439 45.5 12.8334 49.1561 12.8334 53.6667C12.8334 58.1773 10.7439 61.8334 8.16675 61.8334ZM12.8334 40.8334H8.16675V36.1667H12.8334V40.8334ZM12.8334 31.5H8.16675V26.8334H12.8334V31.5Z" fill="#CAE2FF"/>
<path d="M51.3333 18.6667V0H18.6667V18.6667H0V46.6667H2.33333V21H18.6667V67.6667H9.33333V62.8194C12.0273 61.9769 14 58.2598 14 53.6667C14 48.4332 11.4331 44.3333 8.16667 44.3333C4.90023 44.3333 2.33333 48.4332 2.33333 53.6667C2.33333 58.2598 4.30607 61.9769 7 62.8194V67.6667H0V70H70V18.6667H51.3333ZM4.66667 53.6667C4.66667 49.5412 6.51123 46.6667 8.16667 46.6667C9.8221 46.6667 11.6667 49.5412 11.6667 53.6667C11.6667 57.7922 9.8221 60.6667 8.16667 60.6667C6.51123 60.6667 4.66667 57.7922 4.66667 53.6667ZM30.3333 67.6667V53.6667H39.6667V67.6667H30.3333ZM49 67.6667H42V51.3333H28V67.6667H21V2.33333H49V67.6667ZM56 65.3333C56 62.1717 57.603 59.5 59.5 59.5C61.397 59.5 63 62.1717 63 65.3333C63.0011 66.1212 62.8975 66.9062 62.6918 67.6667H56.3082C56.1025 66.9062 55.9989 66.1212 56 65.3333ZM67.6667 67.6667H65.0815C65.2462 66.8999 65.3305 66.1178 65.3333 65.3333C65.3333 60.7544 62.7664 57.1667 59.5 57.1667C56.2336 57.1667 53.6667 60.7544 53.6667 65.3333C53.6695 66.1178 53.7538 66.8999 53.9185 67.6667H51.3333V21H67.6667V67.6667Z" fill="#2054A2"/>
<path d="M23.3333 46.6666H46.6666V49H23.3333V46.6666Z" fill="#2054A2"/>
<path d="M32.6667 7H25.6667V14H32.6667V7ZM30.3334 11.6667H28.0001V9.33333H30.3334V11.6667Z" fill="#2054A2"/>
<path d="M44.3332 7H37.3333V14H44.3332V7ZM41.9999 11.6667H39.6666V9.33333H41.9999V11.6667Z" fill="#2054A2"/>
<path d="M32.6667 16.3334H25.6667V23.3334H32.6667V16.3334ZM30.3334 21H28.0001V18.6667H30.3334V21Z" fill="#2054A2"/>
<path d="M44.3332 16.3334H37.3333V23.3334H44.3332V16.3334ZM41.9999 21H39.6666V18.6667H41.9999V21Z" fill="#2054A2"/>
<path d="M32.6667 25.6666H25.6667V32.6666H32.6667V25.6666ZM30.3334 30.3333H28.0001V28H30.3334V30.3333Z" fill="#2054A2"/>
<path d="M44.3332 25.6666H37.3333V32.6666H44.3332V25.6666ZM41.9999 30.3333H39.6666V28H41.9999V30.3333Z" fill="#2054A2"/>
<path d="M32.6667 35H25.6667V42H32.6667V35ZM30.3334 39.6667H28.0001V37.3333H30.3334V39.6667Z" fill="#2054A2"/>
<path d="M14 25.6666H7V32.6666H14V25.6666ZM11.6667 30.3333H9.33333V28H11.6667V30.3333Z" fill="#2054A2"/>
<path d="M7 42H14V35H7V42ZM9.33333 37.3333H11.6667V39.6667H9.33333V37.3333Z" fill="#2054A2"/>
<path d="M44.3332 35H37.3333V42H44.3332V35ZM41.9999 39.6667H39.6666V37.3333H41.9999V39.6667Z" fill="#2054A2"/>
<path d="M63 25.6666H56V32.6666H63V25.6666ZM60.6667 30.3333H58.3333V28H60.6667V30.3333Z" fill="#2054A2"/>
<path d="M63 35H56V42H63V35ZM60.6667 39.6667H58.3333V37.3333H60.6667V39.6667Z" fill="#2054A2"/>
<path d="M63 44.3334H56V51.3334H63V44.3334ZM60.6667 49H58.3333V46.6667H60.6667V49Z" fill="#2054A2"/>
</g>
<defs>
<clipPath id="clip0_538_4488">
<rect width="70" height="70" fill="white"/>
</clipPath>
</defs>
</svg>
