<svg width="60" height="28" viewBox="0 0 60 28" fill="none" xmlns="http://www.w3.org/2000/svg">
<path fill-rule="evenodd" clip-rule="evenodd" d="M21.8722 0.436801C23.511 0.225019 25.2026 0.0794183 26.9339 0V8.49776L34.0044 0.0529456C36.0925 0.172073 38.1278 0.397092 40.0573 0.714765L29.7225 13.0378L40.7974 26.261C38.8811 26.5919 36.8855 26.8434 34.7974 26.989L26.9339 17.5779V27.0949C25.2026 27.0155 23.511 26.8699 21.8722 26.6581V12.3098V9.06693V0.436801ZM43.7048 10.8538V15.9101H54.0264C51.8062 18.5839 45.9251 20.7282 38.3656 21.6415L41.9471 26.036C52.5727 23.9446 60 19.1398 60 13.5408C60 7.82271 52.2291 2.93848 41.2203 0.913311L37.5991 5.36074C45.2115 6.19463 51.2379 8.24627 53.7357 10.8538H43.7048ZM20.8414 26.5125C8.7489 24.7653 0 19.6163 0 13.5408C0 7.47856 8.7489 2.3296 20.8414 0.582401V5.54605C11.5771 6.8035 5.02203 9.91406 5.02203 13.5408C5.02203 17.1808 11.5771 20.2914 20.8414 21.5488V26.5125Z" fill="#CAE2FF"/>
</svg>
